<svg xmlns="http://www.w3.org/2000/svg" xmlns:xlink="http://www.w3.org/1999/xlink" id="body_1" preserveAspectRatio="xMinYMin meet" viewBox="0 0 793 1121"><defs><clipPath id="1"><path d="M0 841L0 -0.9199829L0 -0.9199829L595.32 -0.9199829L595.32 -0.9199829L595.32 841L595.32 841L0 841z" /></clipPath><clipPath id="2"><path d="M28.25 219.93L184.2 219.93L184.2 219.93L184.2 136.13L184.2 136.13L28.25 136.13z" /></clipPath><clipPath id="3"><path d="M21.48 446.73L189.77 446.73L189.77 446.73L189.77 229.99L189.77 229.99L21.48 229.99z" /></clipPath><clipPath id="4"><path d="M21.48 446.73L189.77 446.73L189.77 446.73L189.77 229.99L189.77 229.99L21.48 229.99z" /></clipPath><clipPath id="5"><path d="M21.48 446.73L189.77 446.73L189.77 446.73L189.77 229.99L189.77 229.99L21.48 229.99z" /></clipPath><clipPath id="6"><path d="M21.48 446.73L189.77 446.73L189.77 446.73L189.77 229.99L189.77 229.99L21.48 229.99z" /></clipPath><clipPath id="7"><path d="M21.48 446.73L189.77 446.73L189.77 446.73L189.77 229.99L189.77 229.99L21.48 229.99z" /></clipPath><clipPath id="8"><path d="M21.48 446.73L189.77 446.73L189.77 446.73L189.77 229.99L189.77 229.99L21.48 229.99z" /></clipPath><clipPath id="9"><path d="M21.48 446.73L189.77 446.73L189.77 446.73L189.77 229.99L189.77 229.99L21.48 229.99z" /></clipPath><clipPath id="10"><path d="M21.48 446.73L189.77 446.73L189.77 446.73L189.77 229.99L189.77 229.99L21.48 229.99z" /></clipPath><clipPath id="11"><path d="M21.48 446.73L189.77 446.73L189.77 446.73L189.77 229.99L189.77 229.99L21.48 229.99z" /></clipPath><clipPath id="12"><path d="M21.48 446.73L189.77 446.73L189.77 446.73L189.77 229.99L189.77 229.99L21.48 229.99z" /></clipPath><clipPath id="13"><path d="M21.48 446.73L189.77 446.73L189.77 446.73L189.77 229.99L189.77 229.99L21.48 229.99z" /></clipPath><clipPath id="14"><path d="M21.48 446.73L189.77 446.73L189.77 446.73L189.77 229.99L189.77 229.99L21.48 229.99z" /></clipPath><clipPath id="15"><path d="M21.48 446.73L189.77 446.73L189.77 446.73L189.77 229.99L189.77 229.99L21.48 229.99z" /></clipPath><clipPath id="16"><path d="M21.48 446.73L189.77 446.73L189.77 446.73L189.77 229.99L189.77 229.99L21.48 229.99z" /></clipPath><clipPath id="17"><path d="M21.48 446.73L189.77 446.73L189.77 446.73L189.77 229.99L189.77 229.99L21.48 229.99z" /></clipPath><clipPath id="18"><path d="M21.48 446.73L189.77 446.73L189.77 446.73L189.77 229.99L189.77 229.99L21.48 229.99z" /></clipPath><clipPath id="19"><path d="M21.48 446.73L189.77 446.73L189.77 446.73L189.77 229.99L189.77 229.99L21.48 229.99z" /></clipPath><clipPath id="20"><path d="M21.48 446.73L189.77 446.73L189.77 446.73L189.77 229.99L189.77 229.99L21.48 229.99z" /></clipPath><clipPath id="21"><path d="M21.48 446.73L189.77 446.73L189.77 446.73L189.77 229.99L189.77 229.99L21.48 229.99z" /></clipPath><clipPath id="22"><path d="M21.48 446.73L189.77 446.73L189.77 446.73L189.77 229.99L189.77 229.99L21.48 229.99z" /></clipPath><clipPath id="23"><path d="M21.48 446.73L189.77 446.73L189.77 446.73L189.77 229.99L189.77 229.99L21.48 229.99z" /></clipPath><clipPath id="24"><path d="M21.48 446.73L189.77 446.73L189.77 446.73L189.77 229.99L189.77 229.99L21.48 229.99z" /></clipPath><clipPath id="25"><path d="M21.48 446.73L189.77 446.73L189.77 446.73L189.77 229.99L189.77 229.99L21.48 229.99z" /></clipPath><clipPath id="26"><path d="M21.48 446.73L189.77 446.73L189.77 446.73L189.77 229.99L189.77 229.99L21.48 229.99z" /></clipPath><clipPath id="27"><path d="M21.48 446.73L189.77 446.73L189.77 446.73L189.77 229.99L189.77 229.99L21.48 229.99z" /></clipPath><clipPath id="28"><path d="M20.16 557.27L189.05 557.27L189.05 557.27L189.05 451.77L189.05 451.77L20.16 451.77z" /></clipPath><clipPath id="29"><path d="M20.16 557.27L189.05 557.27L189.05 557.27L189.05 451.77L189.05 451.77L20.16 451.77z" /></clipPath><clipPath id="30"><path d="M27.4 556.53L181.8 556.53L181.8 556.53L181.8 456.13L181.8 456.13L27.4 456.13z" /></clipPath><clipPath id="31"><path d="M196.25 542.75L378.91 542.75L378.91 542.75L378.91 136.86L378.91 136.86L196.25 136.86z" /></clipPath><clipPath id="32"><path d="M196.25 542.75L378.91 542.75L378.91 542.75L378.91 136.86L378.91 136.86L196.25 136.86z" /></clipPath><clipPath id="33"><path d="M196.25 542.75L378.91 542.75L378.91 542.75L378.91 136.86L378.91 136.86L196.25 136.86z" /></clipPath><clipPath id="34"><path d="M196.25 542.75L378.91 542.75L378.91 542.75L378.91 136.86L378.91 136.86L196.25 136.86z" /></clipPath><clipPath id="35"><path d="M196.25 542.75L378.91 542.75L378.91 542.75L378.91 136.86L378.91 136.86L196.25 136.86z" /></clipPath><clipPath id="36"><path d="M196.25 542.75L378.91 542.75L378.91 542.75L378.91 136.86L378.91 136.86L196.25 136.86z" /></clipPath><clipPath id="37"><path d="M196.25 542.75L378.91 542.75L378.91 542.75L378.91 136.86L378.91 136.86L196.25 136.86z" /></clipPath><clipPath id="38"><path d="M196.25 542.75L378.91 542.75L378.91 542.75L378.91 136.86L378.91 136.86L196.25 136.86z" /></clipPath><clipPath id="39"><path d="M196.25 542.75L378.91 542.75L378.91 542.75L378.91 136.86L378.91 136.86L196.25 136.86z" /></clipPath><clipPath id="40"><path d="M196.25 542.75L378.91 542.75L378.91 542.75L378.91 136.86L378.91 136.86L196.25 136.86z" /></clipPath><clipPath id="41"><path d="M196.25 542.75L378.91 542.75L378.91 542.75L378.91 136.86L378.91 136.86L196.25 136.86z" /></clipPath><clipPath id="42"><path d="M196.25 542.75L378.91 542.75L378.91 542.75L378.91 136.86L378.91 136.86L196.25 136.86z" /></clipPath><clipPath id="43"><path d="M196.25 542.75L378.91 542.75L378.91 542.75L378.91 136.86L378.91 136.86L196.25 136.86z" /></clipPath><clipPath id="44"><path d="M196.25 542.75L378.91 542.75L378.91 542.75L378.91 136.86L378.91 136.86L196.25 136.86z" /></clipPath><clipPath id="45"><path d="M196.25 542.75L378.91 542.75L378.91 542.75L378.91 136.86L378.91 136.86L196.25 136.86z" /></clipPath><clipPath id="46"><path d="M196.25 542.75L378.91 542.75L378.91 542.75L378.91 136.86L378.91 136.86L196.25 136.86z" /></clipPath><clipPath id="47"><path d="M196.25 542.75L378.91 542.75L378.91 542.75L378.91 136.86L378.91 136.86L196.25 136.86z" /></clipPath><clipPath id="48"><path d="M196.25 542.75L378.91 542.75L378.91 542.75L378.91 136.86L378.91 136.86L196.25 136.86z" /></clipPath><clipPath id="49"><path d="M196.25 542.75L378.91 542.75L378.91 542.75L378.91 136.86L378.91 136.86L196.25 136.86z" /></clipPath><clipPath id="50"><path d="M196.25 542.75L378.91 542.75L378.91 542.75L378.91 136.86L378.91 136.86L196.25 136.86z" /></clipPath><clipPath id="51"><path d="M196.25 542.75L378.91 542.75L378.91 542.75L378.91 136.86L378.91 136.86L196.25 136.86z" /></clipPath><clipPath id="52"><path d="M196.25 542.75L378.91 542.75L378.91 542.75L378.91 136.86L378.91 136.86L196.25 136.86z" /></clipPath><clipPath id="53"><path d="M196.25 542.75L378.91 542.75L378.91 542.75L378.91 136.86L378.91 136.86L196.25 136.86z" /></clipPath><clipPath id="54"><path d="M196.25 542.75L378.91 542.75L378.91 542.75L378.91 136.86L378.91 136.86L196.25 136.86z" /></clipPath><clipPath id="55"><path d="M196.25 542.75L378.91 542.75L378.91 542.75L378.91 136.86L378.91 136.86L196.25 136.86z" /></clipPath><clipPath id="56"><path d="M196.25 542.75L378.91 542.75L378.91 542.75L378.91 136.86L378.91 136.86L196.25 136.86z" /></clipPath><clipPath id="57"><path d="M196.25 542.75L378.91 542.75L378.91 542.75L378.91 136.86L378.91 136.86L196.25 136.86z" /></clipPath><clipPath id="58"><path d="M196.25 542.75L378.91 542.75L378.91 542.75L378.91 136.86L378.91 136.86L196.25 136.86z" /></clipPath><clipPath id="59"><path d="M196.25 542.75L378.91 542.75L378.91 542.75L378.91 136.86L378.91 136.86L196.25 136.86z" /></clipPath><clipPath id="60"><path d="M196.25 542.75L378.91 542.75L378.91 542.75L378.91 136.86L378.91 136.86L196.25 136.86z" /></clipPath><clipPath id="61"><path d="M196.25 542.75L378.91 542.75L378.91 542.75L378.91 136.86L378.91 136.86L196.25 136.86z" /></clipPath><clipPath id="62"><path d="M196.25 542.75L378.91 542.75L378.91 542.75L378.91 136.86L378.91 136.86L196.25 136.86z" /></clipPath><clipPath id="63"><path d="M196.25 542.75L378.91 542.75L378.91 542.75L378.91 136.86L378.91 136.86L196.25 136.86z" /></clipPath><clipPath id="64"><path d="M196.25 542.75L378.91 542.75L378.91 542.75L378.91 136.86L378.91 136.86L196.25 136.86z" /></clipPath><clipPath id="65"><path d="M196.25 542.75L378.91 542.75L378.91 542.75L378.91 136.86L378.91 136.86L196.25 136.86z" /></clipPath><clipPath id="66"><path d="M196.25 542.75L378.91 542.75L378.91 542.75L378.91 136.86L378.91 136.86L196.25 136.86z" /></clipPath><clipPath id="67"><path d="M196.25 542.75L378.91 542.75L378.91 542.75L378.91 136.86L378.91 136.86L196.25 136.86z" /></clipPath><clipPath id="68"><path d="M196.25 542.75L378.91 542.75L378.91 542.75L378.91 136.86L378.91 136.86L196.25 136.86z" /></clipPath><clipPath id="69"><path d="M196.25 542.75L378.91 542.75L378.91 542.75L378.91 136.86L378.91 136.86L196.25 136.86z" /></clipPath><clipPath id="70"><path d="M196.25 542.75L378.91 542.75L378.91 542.75L378.91 136.86L378.91 136.86L196.25 136.86z" /></clipPath><clipPath id="71"><path d="M196.25 542.75L378.91 542.75L378.91 542.75L378.91 136.86L378.91 136.86L196.25 136.86z" /></clipPath><clipPath id="72"><path d="M196.25 542.75L378.91 542.75L378.91 542.75L378.91 136.86L378.91 136.86L196.25 136.86z" /></clipPath><clipPath id="73"><path d="M196.25 542.75L378.91 542.75L378.91 542.75L378.91 136.86L378.91 136.86L196.25 136.86z" /></clipPath><clipPath id="74"><path d="M196.25 542.75L378.91 542.75L378.91 542.75L378.91 136.86L378.91 136.86L196.25 136.86z" /></clipPath><clipPath id="75"><path d="M196.25 542.75L378.91 542.75L378.91 542.75L378.91 136.86L378.91 136.86L196.25 136.86z" /></clipPath><clipPath id="76"><path d="M196.25 542.75L378.91 542.75L378.91 542.75L378.91 136.86L378.91 136.86L196.25 136.86z" /></clipPath><clipPath id="77"><path d="M196.25 542.75L378.91 542.75L378.91 542.75L378.91 136.86L378.91 136.86L196.25 136.86z" /></clipPath><clipPath id="78"><path d="M196.25 542.75L378.91 542.75L378.91 542.75L378.91 136.86L378.91 136.86L196.25 136.86z" /></clipPath><clipPath id="79"><path d="M196.25 542.75L378.91 542.75L378.91 542.75L378.91 136.86L378.91 136.86L196.25 136.86z" /></clipPath><clipPath id="80"><path d="M196.25 542.75L378.91 542.75L378.91 542.75L378.91 136.86L378.91 136.86L196.25 136.86z" /></clipPath><clipPath id="81"><path d="M196.25 542.75L378.91 542.75L378.91 542.75L378.91 136.86L378.91 136.86L196.25 136.86z" /></clipPath><clipPath id="82"><path d="M196.25 542.75L378.91 542.75L378.91 542.75L378.91 136.86L378.91 136.86L196.25 136.86z" /></clipPath><clipPath id="83"><path d="M196.25 542.75L378.91 542.75L378.91 542.75L378.91 136.86L378.91 136.86L196.25 136.86z" /></clipPath><clipPath id="84"><path d="M196.25 542.75L378.91 542.75L378.91 542.75L378.91 136.86L378.91 136.86L196.25 136.86z" /></clipPath><clipPath id="85"><path d="M196.25 542.75L378.91 542.75L378.91 542.75L378.91 136.86L378.91 136.86L196.25 136.86z" /></clipPath><clipPath id="86"><path d="M196.25 542.75L378.91 542.75L378.91 542.75L378.91 136.86L378.91 136.86L196.25 136.86z" /></clipPath><clipPath id="87"><path d="M196.25 542.75L378.91 542.75L378.91 542.75L378.91 136.86L378.91 136.86L196.25 136.86z" /></clipPath><clipPath id="88"><path d="M196.25 542.75L378.91 542.75L378.91 542.75L378.91 136.86L378.91 136.86L196.25 136.86z" /></clipPath><clipPath id="89"><path d="M196.25 542.75L378.91 542.75L378.91 542.75L378.91 136.86L378.91 136.86L196.25 136.86z" /></clipPath><clipPath id="90"><path d="M196.25 542.75L378.91 542.75L378.91 542.75L378.91 136.86L378.91 136.86L196.25 136.86z" /></clipPath><clipPath id="91"><path d="M196.25 542.75L378.91 542.75L378.91 542.75L378.91 136.86L378.91 136.86L196.25 136.86z" /></clipPath><clipPath id="92"><path d="M196.25 542.75L378.91 542.75L378.91 542.75L378.91 136.86L378.91 136.86L196.25 136.86z" /></clipPath><clipPath id="93"><path d="M196.25 542.75L378.91 542.75L378.91 542.75L378.91 136.86L378.91 136.86L196.25 136.86z" /></clipPath><clipPath id="94"><path d="M196.25 542.75L378.91 542.75L378.91 542.75L378.91 136.86L378.91 136.86L196.25 136.86z" /></clipPath><clipPath id="95"><path d="M196.25 542.75L378.91 542.75L378.91 542.75L378.91 136.86L378.91 136.86L196.25 136.86z" /></clipPath><clipPath id="96"><path d="M196.25 542.75L378.91 542.75L378.91 542.75L378.91 136.86L378.91 136.86L196.25 136.86z" /></clipPath><clipPath id="97"><path d="M196.25 542.75L378.91 542.75L378.91 542.75L378.91 136.86L378.91 136.86L196.25 136.86z" /></clipPath><clipPath id="98"><path d="M196.25 542.75L378.91 542.75L378.91 542.75L378.91 136.86L378.91 136.86L196.25 136.86z" /></clipPath><clipPath id="99"><path d="M196.25 542.75L378.91 542.75L378.91 542.75L378.91 136.86L378.91 136.86L196.25 136.86z" /></clipPath><clipPath id="100"><path d="M196.25 542.75L378.91 542.75L378.91 542.75L378.91 136.86L378.91 136.86L196.25 136.86z" /></clipPath><clipPath id="101"><path d="M196.25 542.75L378.91 542.75L378.91 542.75L378.91 136.86L378.91 136.86L196.25 136.86z" /></clipPath><clipPath id="102"><path d="M196.25 542.75L378.91 542.75L378.91 542.75L378.91 136.86L378.91 136.86L196.25 136.86z" /></clipPath><clipPath id="103"><path d="M196.25 542.75L378.91 542.75L378.91 542.75L378.91 136.86L378.91 136.86L196.25 136.86z" /></clipPath><clipPath id="104"><path d="M196.25 542.75L378.91 542.75L378.91 542.75L378.91 136.86L378.91 136.86L196.25 136.86z" /></clipPath><clipPath id="105"><path d="M196.25 542.75L378.91 542.75L378.91 542.75L378.91 136.86L378.91 136.86L196.25 136.86z" /></clipPath><clipPath id="106"><path d="M380.71 825.736L577.68 825.736L577.68 825.736L577.68 235.626L577.68 235.626L380.71 235.626z" /></clipPath><clipPath id="107"><path d="M380.71 825.736L577.68 825.736L577.68 825.736L577.68 235.626L577.68 235.626L380.71 235.626z" /></clipPath><clipPath id="108"><path d="M380.71 825.736L577.68 825.736L577.68 825.736L577.68 235.626L577.68 235.626L380.71 235.626z" /></clipPath><clipPath id="109"><path d="M380.71 825.736L577.68 825.736L577.68 825.736L577.68 235.626L577.68 235.626L380.71 235.626z" /></clipPath><clipPath id="110"><path d="M380.71 825.736L577.68 825.736L577.68 825.736L577.68 235.626L577.68 235.626L380.71 235.626z" /></clipPath><clipPath id="111"><path d="M380.71 825.736L577.68 825.736L577.68 825.736L577.68 235.626L577.68 235.626L380.71 235.626z" /></clipPath><clipPath id="112"><path d="M380.71 825.736L577.68 825.736L577.68 825.736L577.68 235.626L577.68 235.626L380.71 235.626z" /></clipPath><clipPath id="113"><path d="M380.71 825.736L577.68 825.736L577.68 825.736L577.68 235.626L577.68 235.626L380.71 235.626z" /></clipPath><clipPath id="114"><path d="M380.71 825.736L577.68 825.736L577.68 825.736L577.68 235.626L577.68 235.626L380.71 235.626z" /></clipPath><clipPath id="115"><path d="M380.71 825.736L577.68 825.736L577.68 825.736L577.68 235.626L577.68 235.626L380.71 235.626z" /></clipPath><clipPath id="116"><path d="M380.71 825.736L577.68 825.736L577.68 825.736L577.68 235.626L577.68 235.626L380.71 235.626z" /></clipPath><clipPath id="117"><path d="M380.71 825.736L577.68 825.736L577.68 825.736L577.68 235.626L577.68 235.626L380.71 235.626z" /></clipPath><clipPath id="118"><path d="M380.71 825.736L577.68 825.736L577.68 825.736L577.68 235.626L577.68 235.626L380.71 235.626z" /></clipPath><clipPath id="119"><path d="M380.71 825.736L577.68 825.736L577.68 825.736L577.68 235.626L577.68 235.626L380.71 235.626z" /></clipPath><clipPath id="120"><path d="M380.71 825.736L577.68 825.736L577.68 825.736L577.68 235.626L577.68 235.626L380.71 235.626z" /></clipPath><clipPath id="121"><path d="M380.71 825.736L577.68 825.736L577.68 825.736L577.68 235.626L577.68 235.626L380.71 235.626z" /></clipPath><clipPath id="122"><path d="M380.71 825.736L577.68 825.736L577.68 825.736L577.68 235.626L577.68 235.626L380.71 235.626z" /></clipPath><clipPath id="123"><path d="M380.71 825.736L577.68 825.736L577.68 825.736L577.68 235.626L577.68 235.626L380.71 235.626z" /></clipPath><clipPath id="124"><path d="M380.71 825.736L577.68 825.736L577.68 825.736L577.68 235.626L577.68 235.626L380.71 235.626z" /></clipPath><clipPath id="125"><path d="M380.71 825.736L577.68 825.736L577.68 825.736L577.68 235.626L577.68 235.626L380.71 235.626z" /></clipPath><clipPath id="126"><path d="M380.71 825.736L577.68 825.736L577.68 825.736L577.68 235.626L577.68 235.626L380.71 235.626z" /></clipPath><clipPath id="127"><path d="M380.71 825.736L577.68 825.736L577.68 825.736L577.68 235.626L577.68 235.626L380.71 235.626z" /></clipPath><clipPath id="128"><path d="M380.71 825.736L577.68 825.736L577.68 825.736L577.68 235.626L577.68 235.626L380.71 235.626z" /></clipPath><clipPath id="129"><path d="M380.71 825.736L577.68 825.736L577.68 825.736L577.68 235.626L577.68 235.626L380.71 235.626z" /></clipPath><clipPath id="130"><path d="M380.71 825.736L577.68 825.736L577.68 825.736L577.68 235.626L577.68 235.626L380.71 235.626z" /></clipPath><clipPath id="131"><path d="M380.71 825.736L577.68 825.736L577.68 825.736L577.68 235.626L577.68 235.626L380.71 235.626z" /></clipPath><clipPath id="132"><path d="M380.71 825.736L577.68 825.736L577.68 825.736L577.68 235.626L577.68 235.626L380.71 235.626z" /></clipPath><clipPath id="133"><path d="M380.71 825.736L577.68 825.736L577.68 825.736L577.68 235.626L577.68 235.626L380.71 235.626z" /></clipPath><clipPath id="134"><path d="M380.71 825.736L577.68 825.736L577.68 825.736L577.68 235.626L577.68 235.626L380.71 235.626z" /></clipPath><clipPath id="135"><path d="M380.71 825.736L577.68 825.736L577.68 825.736L577.68 235.626L577.68 235.626L380.71 235.626z" /></clipPath><clipPath id="136"><path d="M380.71 825.736L577.68 825.736L577.68 825.736L577.68 235.626L577.68 235.626L380.71 235.626z" /></clipPath><clipPath id="137"><path d="M380.71 825.736L577.68 825.736L577.68 825.736L577.68 235.626L577.68 235.626L380.71 235.626z" /></clipPath><clipPath id="138"><path d="M380.71 825.736L577.68 825.736L577.68 825.736L577.68 235.626L577.68 235.626L380.71 235.626z" /></clipPath><clipPath id="139"><path d="M380.71 825.736L577.68 825.736L577.68 825.736L577.68 235.626L577.68 235.626L380.71 235.626z" /></clipPath><clipPath id="140"><path d="M380.71 825.736L577.68 825.736L577.68 825.736L577.68 235.626L577.68 235.626L380.71 235.626z" /></clipPath><clipPath id="141"><path d="M380.71 825.736L577.68 825.736L577.68 825.736L577.68 235.626L577.68 235.626L380.71 235.626z" /></clipPath><clipPath id="142"><path d="M380.71 825.736L577.68 825.736L577.68 825.736L577.68 235.626L577.68 235.626L380.71 235.626z" /></clipPath><clipPath id="143"><path d="M380.71 825.736L577.68 825.736L577.68 825.736L577.68 235.626L577.68 235.626L380.71 235.626z" /></clipPath><clipPath id="144"><path d="M380.71 825.736L577.68 825.736L577.68 825.736L577.68 235.626L577.68 235.626L380.71 235.626z" /></clipPath><clipPath id="145"><path d="M380.71 825.736L577.68 825.736L577.68 825.736L577.68 235.626L577.68 235.626L380.71 235.626z" /></clipPath><clipPath id="146"><path d="M380.71 825.736L577.68 825.736L577.68 825.736L577.68 235.626L577.68 235.626L380.71 235.626z" /></clipPath><clipPath id="147"><path d="M380.71 825.736L577.68 825.736L577.68 825.736L577.68 235.626L577.68 235.626L380.71 235.626z" /></clipPath><clipPath id="148"><path d="M380.71 825.736L577.68 825.736L577.68 825.736L577.68 235.626L577.68 235.626L380.71 235.626z" /></clipPath><clipPath id="149"><path d="M380.71 825.736L577.68 825.736L577.68 825.736L577.68 235.626L577.68 235.626L380.71 235.626z" /></clipPath><clipPath id="150"><path d="M380.71 825.736L577.68 825.736L577.68 825.736L577.68 235.626L577.68 235.626L380.71 235.626z" /></clipPath><clipPath id="151"><path d="M380.71 825.736L577.68 825.736L577.68 825.736L577.68 235.626L577.68 235.626L380.71 235.626z" /></clipPath><clipPath id="152"><path d="M380.71 825.736L577.68 825.736L577.68 825.736L577.68 235.626L577.68 235.626L380.71 235.626z" /></clipPath><clipPath id="153"><path d="M380.71 825.736L577.68 825.736L577.68 825.736L577.68 235.626L577.68 235.626L380.71 235.626z" /></clipPath><clipPath id="154"><path d="M380.71 825.736L577.68 825.736L577.68 825.736L577.68 235.626L577.68 235.626L380.71 235.626z" /></clipPath><clipPath id="155"><path d="M380.71 825.736L577.68 825.736L577.68 825.736L577.68 235.626L577.68 235.626L380.71 235.626z" /></clipPath><clipPath id="156"><path d="M380.71 825.736L577.68 825.736L577.68 825.736L577.68 235.626L577.68 235.626L380.71 235.626z" /></clipPath><clipPath id="157"><path d="M380.71 825.736L577.68 825.736L577.68 825.736L577.68 235.626L577.68 235.626L380.71 235.626z" /></clipPath><clipPath id="158"><path d="M380.71 825.736L577.68 825.736L577.68 825.736L577.68 235.626L577.68 235.626L380.71 235.626z" /></clipPath><clipPath id="159"><path d="M380.71 825.736L577.68 825.736L577.68 825.736L577.68 235.626L577.68 235.626L380.71 235.626z" /></clipPath><clipPath id="160"><path d="M380.71 825.736L577.68 825.736L577.68 825.736L577.68 235.626L577.68 235.626L380.71 235.626z" /></clipPath><clipPath id="161"><path d="M380.71 825.736L577.68 825.736L577.68 825.736L577.68 235.626L577.68 235.626L380.71 235.626z" /></clipPath><clipPath id="162"><path d="M380.71 825.736L577.68 825.736L577.68 825.736L577.68 235.626L577.68 235.626L380.71 235.626z" /></clipPath><clipPath id="163"><path d="M380.71 825.736L577.68 825.736L577.68 825.736L577.68 235.626L577.68 235.626L380.71 235.626z" /></clipPath><clipPath id="164"><path d="M380.71 825.736L577.68 825.736L577.68 825.736L577.68 235.626L577.68 235.626L380.71 235.626z" /></clipPath><clipPath id="165"><path d="M380.71 825.736L577.68 825.736L577.68 825.736L577.68 235.626L577.68 235.626L380.71 235.626z" /></clipPath><clipPath id="166"><path d="M380.71 825.736L577.68 825.736L577.68 825.736L577.68 235.626L577.68 235.626L380.71 235.626z" /></clipPath><clipPath id="167"><path d="M380.71 825.736L577.68 825.736L577.68 825.736L577.68 235.626L577.68 235.626L380.71 235.626z" /></clipPath><clipPath id="168"><path d="M380.71 825.736L577.68 825.736L577.68 825.736L577.68 235.626L577.68 235.626L380.71 235.626z" /></clipPath><clipPath id="169"><path d="M380.71 825.736L577.68 825.736L577.68 825.736L577.68 235.626L577.68 235.626L380.71 235.626z" /></clipPath><clipPath id="170"><path d="M380.71 825.736L577.68 825.736L577.68 825.736L577.68 235.626L577.68 235.626L380.71 235.626z" /></clipPath><clipPath id="171"><path d="M380.71 825.736L577.68 825.736L577.68 825.736L577.68 235.626L577.68 235.626L380.71 235.626z" /></clipPath><clipPath id="172"><path d="M390.19 241.74L558.45 241.74L558.45 241.74L558.45 129.54L558.45 129.54L390.19 129.54z" /></clipPath><clipPath id="173"><path d="M390.19 241.74L558.45 241.74L558.45 241.74L558.45 129.54L558.45 129.54L390.19 129.54z" /></clipPath><clipPath id="174"><path d="M397.35 241.72L550.7 241.72L550.7 241.72L550.7 134.7L550.7 134.7L397.35 134.7z" /></clipPath><clipPath id="175"><path d="M18.96 822.376L189.05 822.376L189.05 822.376L189.05 569.396L189.05 569.396L18.96 569.396z" /></clipPath><clipPath id="176"><path d="M18.96 822.376L189.05 822.376L189.05 822.376L189.05 569.396L189.05 569.396L18.96 569.396z" /></clipPath><clipPath id="177"><path d="M18.96 822.376L189.05 822.376L189.05 822.376L189.05 569.396L189.05 569.396L18.96 569.396z" /></clipPath><clipPath id="178"><path d="M18.96 822.376L189.05 822.376L189.05 822.376L189.05 569.396L189.05 569.396L18.96 569.396z" /></clipPath><clipPath id="179"><path d="M18.96 822.376L189.05 822.376L189.05 822.376L189.05 569.396L189.05 569.396L18.96 569.396z" /></clipPath><clipPath id="180"><path d="M18.96 822.376L189.05 822.376L189.05 822.376L189.05 569.396L189.05 569.396L18.96 569.396z" /></clipPath><clipPath id="181"><path d="M18.96 822.376L189.05 822.376L189.05 822.376L189.05 569.396L189.05 569.396L18.96 569.396z" /></clipPath><clipPath id="182"><path d="M18.96 822.376L189.05 822.376L189.05 822.376L189.05 569.396L189.05 569.396L18.96 569.396z" /></clipPath><clipPath id="183"><path d="M18.96 822.376L189.05 822.376L189.05 822.376L189.05 569.396L189.05 569.396L18.96 569.396z" /></clipPath><clipPath id="184"><path d="M18.96 822.376L189.05 822.376L189.05 822.376L189.05 569.396L189.05 569.396L18.96 569.396z" /></clipPath><clipPath id="185"><path d="M18.96 822.376L189.05 822.376L189.05 822.376L189.05 569.396L189.05 569.396L18.96 569.396z" /></clipPath><clipPath id="186"><path d="M18.96 822.376L189.05 822.376L189.05 822.376L189.05 569.396L189.05 569.396L18.96 569.396z" /></clipPath><clipPath id="187"><path d="M18.96 822.376L189.05 822.376L189.05 822.376L189.05 569.396L189.05 569.396L18.96 569.396z" /></clipPath><clipPath id="188"><path d="M18.96 822.376L189.05 822.376L189.05 822.376L189.05 569.396L189.05 569.396L18.96 569.396z" /></clipPath><clipPath id="189"><path d="M18.96 822.376L189.05 822.376L189.05 822.376L189.05 569.396L189.05 569.396L18.96 569.396z" /></clipPath><clipPath id="190"><path d="M18.96 822.376L189.05 822.376L189.05 822.376L189.05 569.396L189.05 569.396L18.96 569.396z" /></clipPath><clipPath id="191"><path d="M18.96 822.376L189.05 822.376L189.05 822.376L189.05 569.396L189.05 569.396L18.96 569.396z" /></clipPath><clipPath id="192"><path d="M18.96 822.376L189.05 822.376L189.05 822.376L189.05 569.396L189.05 569.396L18.96 569.396z" /></clipPath><clipPath id="193"><path d="M18.96 822.376L189.05 822.376L189.05 822.376L189.05 569.396L189.05 569.396L18.96 569.396z" /></clipPath><clipPath id="194"><path d="M18.96 822.376L189.05 822.376L189.05 822.376L189.05 569.396L189.05 569.396L18.96 569.396z" /></clipPath><clipPath id="195"><path d="M18.96 822.376L189.05 822.376L189.05 822.376L189.05 569.396L189.05 569.396L18.96 569.396z" /></clipPath><clipPath id="196"><path d="M18.96 822.376L189.05 822.376L189.05 822.376L189.05 569.396L189.05 569.396L18.96 569.396z" /></clipPath><clipPath id="197"><path d="M18.96 822.376L189.05 822.376L189.05 822.376L189.05 569.396L189.05 569.396L18.96 569.396z" /></clipPath><clipPath id="198"><path d="M18.96 822.376L189.05 822.376L189.05 822.376L189.05 569.396L189.05 569.396L18.96 569.396z" /></clipPath><clipPath id="199"><path d="M18.96 822.376L189.05 822.376L189.05 822.376L189.05 569.396L189.05 569.396L18.96 569.396z" /></clipPath><clipPath id="200"><path d="M18.96 822.376L189.05 822.376L189.05 822.376L189.05 569.396L189.05 569.396L18.96 569.396z" /></clipPath><clipPath id="201"><path d="M18.96 822.376L189.05 822.376L189.05 822.376L189.05 569.396L189.05 569.396L18.96 569.396z" /></clipPath><clipPath id="202"><path d="M18.96 822.376L189.05 822.376L189.05 822.376L189.05 569.396L189.05 569.396L18.96 569.396z" /></clipPath><clipPath id="203"><path d="M18.96 822.376L189.05 822.376L189.05 822.376L189.05 569.396L189.05 569.396L18.96 569.396z" /></clipPath><clipPath id="204"><path d="M18.96 822.376L189.05 822.376L189.05 822.376L189.05 569.396L189.05 569.396L18.96 569.396z" /></clipPath><clipPath id="205"><path d="M18.96 822.376L189.05 822.376L189.05 822.376L189.05 569.396L189.05 569.396L18.96 569.396z" /></clipPath><clipPath id="206"><path d="M18.96 822.376L189.05 822.376L189.05 822.376L189.05 569.396L189.05 569.396L18.96 569.396z" /></clipPath><clipPath id="207"><path d="M18.96 822.376L189.05 822.376L189.05 822.376L189.05 569.396L189.05 569.396L18.96 569.396z" /></clipPath><clipPath id="208"><path d="M18.96 822.376L189.05 822.376L189.05 822.376L189.05 569.396L189.05 569.396L18.96 569.396z" /></clipPath><clipPath id="209"><path d="M18.96 822.376L189.05 822.376L189.05 822.376L189.05 569.396L189.05 569.396L18.96 569.396z" /></clipPath><clipPath id="210"><path d="M18.96 822.376L189.05 822.376L189.05 822.376L189.05 569.396L189.05 569.396L18.96 569.396z" /></clipPath><clipPath id="211"><path d="M18.96 822.376L189.05 822.376L189.05 822.376L189.05 569.396L189.05 569.396L18.96 569.396z" /></clipPath><clipPath id="212"><path d="M18.96 822.376L189.05 822.376L189.05 822.376L189.05 569.396L189.05 569.396L18.96 569.396z" /></clipPath><clipPath id="213"><path d="M18.96 822.376L189.05 822.376L189.05 822.376L189.05 569.396L189.05 569.396L18.96 569.396z" /></clipPath><clipPath id="214"><path d="M18.96 822.376L189.05 822.376L189.05 822.376L189.05 569.396L189.05 569.396L18.96 569.396z" /></clipPath><clipPath id="215"><path d="M18.96 822.376L189.05 822.376L189.05 822.376L189.05 569.396L189.05 569.396L18.96 569.396z" /></clipPath><clipPath id="216"><path d="M210.65 769.456L374.35 769.456L374.35 769.456L374.35 542.396L374.35 542.396L210.65 542.396z" /></clipPath><clipPath id="217"><path d="M210.65 769.456L374.35 769.456L374.35 769.456L374.35 542.396L374.35 542.396L210.65 542.396z" /></clipPath><clipPath id="218"><path d="M217.8 739L357.75 739L357.75 739L357.75 548.05L357.75 548.05L217.8 548.05z" /></clipPath><clipPath id="219"><path d="M18.96 118.36L258.84 118.36L258.84 118.36L258.84 3.399963L258.84 3.399963L18.96 3.399963z" /></clipPath><clipPath id="220"><path d="M18.96 118.36L258.84 118.36L258.84 118.36L258.84 3.399963L258.84 3.399963L18.96 3.399963z" /></clipPath><clipPath id="221"><path d="M18.96 118.36L258.84 118.36L258.84 118.36L258.84 3.399963L258.84 3.399963L18.96 3.399963z" /></clipPath></defs><g transform="matrix(1.333333 0 0 1.333333 0 0)"><g><g clip-path="url(#1)"><g clip-path="url(#2)"><g transform="matrix(-0.4331945 0 0 0.4319588 184.2 136.13)"><g transform="matrix(1 0 0 1 0 0)"><image x="0" y="0" xlink:href="img_01.png" width="360" height="194" /></g></g></g><path transform="matrix(1 0 0 -1 0 841)" d="M21.2 390.52L189.95 390.52L189.95 390.52L189.95 614.87L189.95 614.87L21.2 614.87z" stroke="none" fill="#FFFFFF" fill-rule="evenodd" /><g clip-path="url(#3)"><g clip-path="url(#4)"></g><g clip-path="url(#5)"></g><g clip-path="url(#6)"></g><g clip-path="url(#7)"></g><g clip-path="url(#8)"></g><g clip-path="url(#9)"></g><g clip-path="url(#10)"></g><g clip-path="url(#11)"></g><g clip-path="url(#12)"></g><g clip-path="url(#13)"></g><g clip-path="url(#14)"></g><g clip-path="url(#15)"></g><g clip-path="url(#16)"></g><g clip-path="url(#17)"></g><g clip-path="url(#18)"></g><g clip-path="url(#19)"></g><g clip-path="url(#20)"></g><g clip-path="url(#21)"></g><g clip-path="url(#22)"></g><g clip-path="url(#23)"></g><g clip-path="url(#24)"></g><g clip-path="url(#25)"></g><g clip-path="url(#26)"></g><g clip-path="url(#27)"></g></g><path transform="matrix(1 0 0 -1 0 841)" d="M19.95 279.92L189.25 279.92L189.25 279.92L189.25 393.07L189.25 393.07L19.95 393.07z" stroke="none" fill="#FFFFFF" fill-rule="evenodd" /><g clip-path="url(#28)"><g clip-path="url(#29)"></g></g><g clip-path="url(#30)"><g transform="matrix(0.3275896 0 0 0.3270358 27.4 456.13)"><g transform="matrix(1 0 0 1 0 0)"><image x="0" y="0" xlink:href="img_02.png" width="502" height="307" /></g></g></g><path transform="matrix(1 0 0 -1 0 841)" d="M195.95 294.42L379.1 294.42L379.1 294.42L379.1 707.97L379.1 707.97L195.95 707.97z" stroke="none" fill="#FFFFFF" fill-rule="evenodd" /><g clip-path="url(#31)"><g clip-path="url(#32)"></g><g clip-path="url(#33)"></g><g clip-path="url(#34)"></g><g clip-path="url(#35)"></g><g clip-path="url(#36)"></g><g clip-path="url(#37)"></g><g clip-path="url(#38)"></g><g clip-path="url(#39)"></g><g clip-path="url(#40)"></g><g clip-path="url(#41)"></g><g clip-path="url(#42)"></g><g clip-path="url(#43)"></g><g clip-path="url(#44)"></g><g clip-path="url(#45)"></g><g clip-path="url(#46)"></g><g clip-path="url(#47)"></g><g clip-path="url(#48)"></g><g clip-path="url(#49)"></g><g clip-path="url(#50)"></g><g clip-path="url(#51)"></g><g clip-path="url(#52)"></g><g clip-path="url(#53)"></g><g clip-path="url(#54)"></g><g clip-path="url(#55)"></g><g clip-path="url(#56)"></g><g clip-path="url(#57)"></g><g clip-path="url(#58)"></g><g clip-path="url(#59)"></g><g clip-path="url(#60)"></g><g clip-path="url(#61)"></g><g clip-path="url(#62)"></g><g clip-path="url(#63)"></g><g clip-path="url(#64)"></g><g clip-path="url(#65)"></g><g clip-path="url(#66)"></g><g clip-path="url(#67)"></g><g clip-path="url(#68)"></g><g clip-path="url(#69)"></g><g clip-path="url(#70)"></g><g clip-path="url(#71)"></g><g clip-path="url(#72)"></g><g clip-path="url(#73)"></g><g clip-path="url(#74)"></g><g clip-path="url(#75)"></g><g clip-path="url(#76)"></g><g clip-path="url(#77)"></g><g clip-path="url(#78)"></g><g clip-path="url(#79)"></g><g clip-path="url(#80)"></g><g clip-path="url(#81)"></g><g clip-path="url(#82)"></g><g clip-path="url(#83)"></g><g clip-path="url(#84)"></g><g clip-path="url(#85)"></g><g clip-path="url(#86)"></g><g clip-path="url(#87)"></g><g clip-path="url(#88)"></g><g clip-path="url(#89)"></g><g clip-path="url(#90)"></g><g clip-path="url(#91)"></g><g clip-path="url(#92)"></g><g clip-path="url(#93)"></g><g clip-path="url(#94)"></g><g clip-path="url(#95)"></g><g clip-path="url(#96)"></g><g clip-path="url(#97)"></g><g clip-path="url(#98)"></g><g clip-path="url(#99)"></g><g clip-path="url(#100)"></g><g clip-path="url(#101)"></g><g clip-path="url(#102)"></g><g clip-path="url(#103)"></g><g clip-path="url(#104)"></g><g clip-path="url(#105)"></g></g><path transform="matrix(1 0 0 -1 0 841)" d="M380.4 11.57L577.85 11.57L577.85 11.57L577.85 609.27L577.85 609.27L380.4 609.27z" stroke="none" fill="#FFFFFF" fill-rule="evenodd" /><g clip-path="url(#106)"><g clip-path="url(#107)"></g><g clip-path="url(#108)"></g><g clip-path="url(#109)"></g><g clip-path="url(#110)"></g><g clip-path="url(#111)"></g><g clip-path="url(#112)"></g><g clip-path="url(#113)"></g><g clip-path="url(#114)"></g><g clip-path="url(#115)"></g><g clip-path="url(#116)"></g><g clip-path="url(#117)"></g><g clip-path="url(#118)"></g><g clip-path="url(#119)"></g><g clip-path="url(#120)"></g><g clip-path="url(#121)"></g><g clip-path="url(#122)"></g><g clip-path="url(#123)"></g><g clip-path="url(#124)"></g><g clip-path="url(#125)"></g><g clip-path="url(#126)"></g><g clip-path="url(#127)"></g><g clip-path="url(#128)"></g><g clip-path="url(#129)"></g><g clip-path="url(#130)"></g><g clip-path="url(#131)"></g><g clip-path="url(#132)"></g><g clip-path="url(#133)"></g><g clip-path="url(#134)"></g><g clip-path="url(#135)"></g><g clip-path="url(#136)"></g><g clip-path="url(#137)"></g><g clip-path="url(#138)"></g><g clip-path="url(#139)"></g><g clip-path="url(#140)"></g><g clip-path="url(#141)"></g><g clip-path="url(#142)"></g><g clip-path="url(#143)"></g><g clip-path="url(#144)"></g><g clip-path="url(#145)"></g><g clip-path="url(#146)"></g><g clip-path="url(#147)"></g><g clip-path="url(#148)"></g><g clip-path="url(#149)"></g><g clip-path="url(#150)"></g><g clip-path="url(#151)"></g><g clip-path="url(#152)"></g><g clip-path="url(#153)"></g><g clip-path="url(#154)"></g><g clip-path="url(#155)"></g><g clip-path="url(#156)"></g><g clip-path="url(#157)"></g><g clip-path="url(#158)"></g><g clip-path="url(#159)"></g><g clip-path="url(#160)"></g><g clip-path="url(#161)"></g><g clip-path="url(#162)"></g><g clip-path="url(#163)"></g><g clip-path="url(#164)"></g><g clip-path="url(#165)"></g><g clip-path="url(#166)"></g><g clip-path="url(#167)"></g><g clip-path="url(#168)"></g><g clip-path="url(#169)"></g><g clip-path="url(#170)"></g><g clip-path="url(#171)"></g></g><path transform="matrix(1 0 0 -1 0 841)" d="M389.9 595.37L558.65 595.37L558.65 595.37L558.65 715.32L558.65 715.32L389.9 715.32z" stroke="none" fill="#FFFFFF" fill-rule="evenodd" /><g clip-path="url(#172)"><g clip-path="url(#173)"></g></g><g clip-path="url(#174)"><g transform="matrix(0.4035527 0 0 0.5232143 397.35 134.7)"><g transform="matrix(1 0 0 1 0 0)"><image x="0" y="0" xlink:href="img_03.png" width="380" height="308" /></g></g></g><path transform="matrix(1 0 0 -1 0 841)" d="M18.65 14.92L189.3 14.92L189.3 14.92L189.3 275.57L189.3 275.57L18.65 275.57z" stroke="none" fill="#FFFFFF" fill-rule="evenodd" /><g clip-path="url(#175)"><g clip-path="url(#176)"></g><g clip-path="url(#177)"></g><g clip-path="url(#178)"></g><g clip-path="url(#179)"></g><g clip-path="url(#180)"></g><g clip-path="url(#181)"></g><g clip-path="url(#182)"></g><g clip-path="url(#183)"></g><g clip-path="url(#184)"></g><g clip-path="url(#185)"></g><g clip-path="url(#186)"></g><g clip-path="url(#187)"></g><g clip-path="url(#188)"></g><g clip-path="url(#189)"></g><g clip-path="url(#190)"></g><g clip-path="url(#191)"></g><g clip-path="url(#192)"></g><g clip-path="url(#193)"></g><g clip-path="url(#194)"></g><g clip-path="url(#195)"></g><g clip-path="url(#196)"></g><g clip-path="url(#197)"></g><g clip-path="url(#198)"></g><g clip-path="url(#199)"></g><g clip-path="url(#200)"></g><g clip-path="url(#201)"></g><g clip-path="url(#202)"></g><g clip-path="url(#203)"></g><g clip-path="url(#204)"></g><g clip-path="url(#205)"></g><g clip-path="url(#206)"></g><g clip-path="url(#207)"></g><g clip-path="url(#208)"></g><g clip-path="url(#209)"></g><g clip-path="url(#210)"></g><g clip-path="url(#211)"></g><g clip-path="url(#212)"></g><g clip-path="url(#213)"></g><g clip-path="url(#214)"></g><g clip-path="url(#215)"></g></g><path transform="matrix(1 0 0 -1 0 841)" d="M210.3 67.82L374.55 67.82L374.55 67.82L374.55 302.57L374.55 302.57L210.3 302.57z" stroke="none" fill="#FFFFFF" fill-rule="evenodd" /><g clip-path="url(#216)"><g clip-path="url(#217)"></g></g><g clip-path="url(#218)"><g transform="matrix(0.3271028 0 0 0.32753 217.75 548.05)"><g transform="matrix(1 0 0 1 0 0)"><image x="0" y="0" xlink:href="img_04.png" width="428" height="583" /></g></g></g><g clip-path="url(#219)"><g transform="matrix(0.359717 0 0 0.3591262 30.96 40.96002)"><g transform="matrix(1 0 0 1 0 0)"><image x="0" y="0" xlink:href="img_05.png" width="636" height="206" /></g></g></g><g clip-path="url(#220)"><path transform="matrix(1 0 0 -1 0 841)" d="M260.19 791.04L296.97 791.04L296.97 791.04L296.97 739.19L296.97 739.19L260.19 739.19zM266.86 784.49L266.86 745.74L266.86 745.74L290.02 745.74L290.02 745.74L290.02 784.49zM125.87 800.54C 127.2 800.55 128.64 800.27 130.18 799.71L130.18 799.71L127.43 795.35L127.43 795.35L156.89 795.35C 161.94 795.35 164.46 793.15 164.46 788.75L164.46 788.75L164.46 771.71C 164.46 769.11 163.69 767.26 162.13 766.15C 160.57 765.04 158.43 764.77 155.69 765.32L155.69 765.32L150.32 766.75C 148.73 767.12 147.54 767.6 146.75 768.21C 145.96 768.82 145.37 769.53 145 770.34C 144.62 771.15 144.45 772.01 144.47 772.92C 144.49 773.83 144.71 774.96 145.13 776.32L145.13 776.32L156.17 773.49L156.17 773.49L156.17 788.02L156.17 788.02L122.74 788.02C 118.07 788.51 116.4 790.56 117.72 794.17L117.72 794.17L120.1 798.06C 121.73 799.69 123.66 800.52 125.87 800.54zM186.53 800.39C 187.21 800.37 187.94 800.32 188.73 800.23L188.73 800.23L188.73 789.98L188.73 789.98L196.59 789.98C 196.77 787.68 196.51 785.88 195.81 784.55C 195.11 783.23 193.96 782.43 192.36 782.16L192.36 782.16L188.73 782.16L188.73 782.16L188.73 764.94L188.73 764.94L195.61 767.27C 196.73 765.02 197.02 763.06 196.5 761.39C 195.97 759.73 194.49 758.52 192.04 757.77L192.04 757.77L188.73 756.51L188.73 756.51L188.73 738.7C 188.73 737.82 188.74 736.99 188.76 736.21C 188.79 735.43 188.62 734.58 188.27 733.66C 187.92 732.75 187.25 731.96 186.25 731.32C 185.25 730.67 183.77 730.35 181.78 730.35L181.78 730.35L172.69 730.43C 172.34 732.79 172.78 734.69 174 736.14C 175.23 737.59 176.83 738.29 178.79 738.24L178.79 738.24L180.22 738.24L180.22 738.24L180.22 754.03L180.22 754.03L172.96 751.34C 172.24 753.07 171.95 754.46 172.07 755.49C 172.19 756.53 172.49 757.4 172.96 758.12C 173.44 758.83 174 759.37 174.66 759.73C 175.31 760.1 175.81 760.35 176.16 760.48L176.16 760.48L180.22 762.12L180.22 762.12L180.22 782.16L180.22 782.16L172.24 782.16C 171.96 784.68 172.19 786.61 172.93 787.96C 173.68 789.31 174.98 789.98 176.84 789.98L176.84 789.98L180.22 789.98L180.22 789.98L180.22 795.53C 180.22 797.38 180.85 798.72 182.1 799.54C 183.04 800.16 184.52 800.44 186.53 800.39zM206.19 799.81L206.19 798.22L206.19 798.22L206.32 798.47C 206.9 799.36 208.31 799.81 210.56 799.81L210.56 799.81L231.34 799.81C 236.48 799.81 239.06 797.91 239.06 794.12L239.06 794.12L239.06 779.84C 238.92 779.04 238.75 778.23 238.56 777.43C 238.38 776.63 238.02 775.95 237.49 775.39C 236.97 774.84 236.26 774.51 235.38 774.4C 234.51 774.29 233.4 774.48 232.06 774.96L232.06 774.96L215.71 781.83C 216.29 783.7 217.19 785.1 218.42 786.02C 219.65 786.95 221.24 787.17 223.19 786.69L223.19 786.69L230.62 783.39L230.62 783.39L230.62 792.55L230.62 792.55L206.19 792.55L206.19 792.55L206.19 772.52L206.19 772.52L231.62 772.52C 236.96 772.52 239.62 770.84 239.62 767.47L239.62 767.47L239.62 761.25C 239.62 759.67 239.08 758.21 238 756.87L238 756.87L229.09 746.53L229.09 746.53L241.81 732.47C 240.44 731.37 239.21 730.72 238.11 730.51C 237.02 730.31 236 730.31 235.04 730.51C 234.08 730.71 233.2 731.07 232.38 731.57C 231.57 732.08 230.83 732.7 230.16 733.41L230.16 733.41L223.73 741.09L223.73 741.09L217.8 733.19C 217.39 732.78 216.87 732.28 216.23 731.69C 215.58 731.1 214.8 730.61 213.86 730.22C 212.93 729.84 211.83 729.68 210.55 729.75C 209.28 729.83 207.77 730.46 206.02 731.64L206.02 731.64L218.46 746.35L218.46 746.35L206.26 760.32L206.26 760.32L206.26 735.38C 206.26 733.37 205.65 731.87 204.43 730.89C 203.2 729.92 201 729.49 197.82 729.6L197.82 729.6L197.82 793.27C 197.82 795.36 198.49 797 199.83 798.17C 200.5 798.74 201.26 799.15 202.1 799.41C 202.94 799.67 204.3 799.81 206.19 799.81zM37.174 798.32L69.641 798.32C 72.423 798.32 74.439 797.78 75.692 796.71C 76.944 795.64 77.445 794 77.194 791.81L77.194 791.81L55.307 737.68L55.307 737.68L94.211 737.68C 94.333 735.08 93.833 733.12 92.714 731.78C 91.595 730.45 89.935 729.79 87.735 729.79L87.735 729.79L51.759 729.79C 46.614 729.79 44.469 731.91 45.324 736.15L45.324 736.15L67.436 790.36L67.436 790.36L30.401 790.36C 30.401 792.47 30.633 794 31.097 794.95C 31.561 795.91 32.146 796.63 32.854 797.12C 33.561 797.61 34.281 797.92 35.013 798.04C 35.745 798.17 36.465 798.26 37.174 798.32zM89.222 795.47C 91.912 794.53 93.552 793.3 94.143 791.76C 94.733 790.23 94.513 788.45 93.482 786.42L93.482 786.42L79.125 768.07L79.125 768.07L92.848 751.61C 95.292 747.53 94.028 744.49 89.057 742.51L89.057 742.51L71.88 763.86C 69.389 766.64 69.274 769.46 71.537 772.34zM113.28 795.36C 113.9 795.38 114.56 795.35 115.27 795.28L115.27 795.28L115.27 763.83L115.27 763.83L160.28 763.83C 160.63 763.83 161.24 763.8 162.1 763.75C 162.96 763.7 163.8 763.48 164.63 763.11C 165.46 762.73 166.19 762.1 166.82 761.21C 167.45 760.31 167.8 758.96 167.86 757.16L167.86 757.16L167.86 736.03C 167.38 731.72 164.92 729.57 160.49 729.57L160.49 729.57L143.28 729.57C 143.15 731.57 143.3 733.04 143.71 733.97C 144.12 734.9 144.67 735.62 145.36 736.11C 146.05 736.61 146.77 736.92 147.54 737.06C 148.31 737.19 148.95 737.25 149.47 737.25L149.47 737.25L159.35 737.25L159.35 737.25L159.35 756.36L159.35 756.36L114.53 756.36C 112.61 756.41 111.12 756.74 110.05 757.34C 108.97 757.94 108.18 758.64 107.68 759.44C 107.17 760.24 106.88 761.03 106.81 761.82C 106.73 762.62 106.71 763.25 106.76 763.72L106.76 763.72L106.76 788.96C 106.76 793.13 108.93 795.26 113.28 795.36zM126.87 785.7C 127.99 785.67 129.14 785.36 130.33 784.76C 131.53 784.16 132.64 783.05 133.67 781.43L133.67 781.43L141.21 769.09C 139.52 768.06 138.08 767.46 136.91 767.29C 135.74 767.12 134.71 767.15 133.82 767.39C 132.92 767.62 132.18 768.02 131.57 768.57C 130.96 769.12 130.48 769.69 130.12 770.26L130.12 770.26L121.67 784.09C 122.38 784.49 123.15 784.87 123.97 785.22C 124.78 785.56 125.75 785.72 126.87 785.7zM206.19 765.76L206.19 762.04C 207.36 763.13 208.91 763.57 210.85 763.38C 212.78 763.19 214.76 762.05 216.79 759.96L216.79 759.96L223.65 752.08L223.65 752.08L230.97 761.78L230.97 761.78L230.97 765.76zM109.46 750.19L152.63 750.19C 153.03 747.73 152.76 745.84 151.82 744.51C 150.88 743.17 149.39 742.51 147.35 742.51L147.35 742.51L102.1 742.51C 102.2 745.06 102.85 746.98 104.06 748.26C 105.26 749.55 107.06 750.19 109.46 750.19z" stroke="none" fill="#5B9BD5" fill-rule="evenodd" /></g><g clip-path="url(#221)"><path transform="matrix(1 0 0 -1 0 841)" d="M260.19 791.04L296.97 791.04L296.97 791.04L296.97 739.19L296.97 739.19L260.19 739.19zM266.86 784.49L266.86 745.74L266.86 745.74L290.02 745.74L290.02 745.74L290.02 784.49zM125.87 800.54C 127.2 800.55 128.64 800.27 130.18 799.71L130.18 799.71L127.43 795.35L127.43 795.35L156.89 795.35C 161.94 795.35 164.46 793.15 164.46 788.75L164.46 788.75L164.46 771.71C 164.46 769.11 163.69 767.26 162.13 766.15C 160.57 765.04 158.43 764.77 155.69 765.32L155.69 765.32L150.32 766.75C 148.73 767.12 147.54 767.6 146.75 768.21C 145.96 768.82 145.37 769.53 145 770.34C 144.62 771.15 144.45 772.01 144.47 772.92C 144.49 773.83 144.71 774.96 145.13 776.32L145.13 776.32L156.17 773.49L156.17 773.49L156.17 788.02L156.17 788.02L122.74 788.02C 118.07 788.51 116.4 790.56 117.72 794.17L117.72 794.17L120.1 798.06C 121.73 799.69 123.66 800.52 125.87 800.54zM186.53 800.39C 187.21 800.37 187.94 800.32 188.73 800.23L188.73 800.23L188.73 789.98L188.73 789.98L196.59 789.98C 196.77 787.68 196.51 785.88 195.81 784.55C 195.11 783.23 193.96 782.43 192.36 782.16L192.36 782.16L188.73 782.16L188.73 782.16L188.73 764.94L188.73 764.94L195.61 767.27C 196.73 765.02 197.02 763.06 196.5 761.39C 195.97 759.73 194.49 758.52 192.04 757.77L192.04 757.77L188.73 756.51L188.73 756.51L188.73 738.7C 188.73 737.82 188.74 736.99 188.76 736.21C 188.79 735.43 188.62 734.58 188.27 733.66C 187.92 732.75 187.25 731.96 186.25 731.32C 185.25 730.67 183.77 730.35 181.78 730.35L181.78 730.35L172.69 730.43C 172.34 732.79 172.78 734.69 174 736.14C 175.23 737.59 176.83 738.29 178.79 738.24L178.79 738.24L180.22 738.24L180.22 738.24L180.22 754.03L180.22 754.03L172.96 751.34C 172.24 753.07 171.95 754.46 172.07 755.49C 172.19 756.53 172.49 757.4 172.96 758.12C 173.44 758.83 174 759.37 174.66 759.73C 175.31 760.1 175.81 760.35 176.16 760.48L176.16 760.48L180.22 762.12L180.22 762.12L180.22 782.16L180.22 782.16L172.24 782.16C 171.96 784.68 172.19 786.61 172.93 787.96C 173.68 789.31 174.98 789.98 176.84 789.98L176.84 789.98L180.22 789.98L180.22 789.98L180.22 795.53C 180.22 797.38 180.85 798.72 182.1 799.54C 183.04 800.16 184.52 800.44 186.53 800.39zM206.19 799.81L206.19 798.22L206.19 798.22L206.32 798.47C 206.9 799.36 208.31 799.81 210.56 799.81L210.56 799.81L231.34 799.81C 236.48 799.81 239.06 797.91 239.06 794.12L239.06 794.12L239.06 779.84C 238.92 779.04 238.75 778.23 238.56 777.43C 238.38 776.63 238.02 775.95 237.49 775.39C 236.97 774.84 236.26 774.51 235.38 774.4C 234.51 774.29 233.4 774.48 232.06 774.96L232.06 774.96L215.71 781.83C 216.29 783.7 217.19 785.1 218.42 786.02C 219.65 786.95 221.24 787.17 223.19 786.69L223.19 786.69L230.62 783.39L230.62 783.39L230.62 792.55L230.62 792.55L206.19 792.55L206.19 792.55L206.19 772.52L206.19 772.52L231.62 772.52C 236.96 772.52 239.62 770.84 239.62 767.47L239.62 767.47L239.62 761.25C 239.62 759.67 239.08 758.21 238 756.87L238 756.87L229.09 746.53L229.09 746.53L241.81 732.47C 240.44 731.37 239.21 730.72 238.11 730.51C 237.02 730.31 236 730.31 235.04 730.51C 234.08 730.71 233.2 731.07 232.38 731.57C 231.57 732.08 230.83 732.7 230.16 733.41L230.16 733.41L223.73 741.09L223.73 741.09L217.8 733.19C 217.39 732.78 216.87 732.28 216.23 731.69C 215.58 731.1 214.8 730.61 213.86 730.22C 212.93 729.84 211.83 729.68 210.55 729.75C 209.28 729.83 207.77 730.46 206.02 731.64L206.02 731.64L218.46 746.35L218.46 746.35L206.26 760.32L206.26 760.32L206.26 735.38C 206.26 733.37 205.65 731.87 204.43 730.89C 203.2 729.92 201 729.49 197.82 729.6L197.82 729.6L197.82 793.27C 197.82 795.36 198.49 797 199.83 798.17C 200.5 798.74 201.26 799.15 202.1 799.41C 202.94 799.67 204.3 799.81 206.19 799.81zM37.174 798.32L69.641 798.32C 72.423 798.32 74.439 797.78 75.692 796.71C 76.944 795.64 77.445 794 77.194 791.81L77.194 791.81L55.307 737.68L55.307 737.68L94.211 737.68C 94.333 735.08 93.833 733.12 92.714 731.78C 91.595 730.45 89.935 729.79 87.735 729.79L87.735 729.79L51.759 729.79C 46.614 729.79 44.469 731.91 45.324 736.15L45.324 736.15L67.436 790.36L67.436 790.36L30.401 790.36C 30.401 792.47 30.633 794 31.097 794.95C 31.561 795.91 32.146 796.63 32.854 797.12C 33.561 797.61 34.281 797.92 35.013 798.04C 35.745 798.17 36.465 798.26 37.174 798.32zM89.222 795.47C 91.912 794.53 93.552 793.3 94.143 791.76C 94.733 790.23 94.513 788.45 93.482 786.42L93.482 786.42L79.125 768.07L79.125 768.07L92.848 751.61C 95.292 747.53 94.028 744.49 89.057 742.51L89.057 742.51L71.88 763.86C 69.389 766.64 69.274 769.46 71.537 772.34zM113.28 795.36C 113.9 795.38 114.56 795.35 115.27 795.28L115.27 795.28L115.27 763.83L115.27 763.83L160.28 763.83C 160.63 763.83 161.24 763.8 162.1 763.75C 162.96 763.7 163.8 763.48 164.63 763.11C 165.46 762.73 166.19 762.1 166.82 761.21C 167.45 760.31 167.8 758.96 167.86 757.16L167.86 757.16L167.86 736.03C 167.38 731.72 164.92 729.57 160.49 729.57L160.49 729.57L143.28 729.57C 143.15 731.57 143.3 733.04 143.71 733.97C 144.12 734.9 144.67 735.62 145.36 736.11C 146.05 736.61 146.77 736.92 147.54 737.06C 148.31 737.19 148.95 737.25 149.47 737.25L149.47 737.25L159.35 737.25L159.35 737.25L159.35 756.36L159.35 756.36L114.53 756.36C 112.61 756.41 111.12 756.74 110.05 757.34C 108.97 757.94 108.18 758.64 107.68 759.44C 107.17 760.24 106.88 761.03 106.81 761.82C 106.73 762.62 106.71 763.25 106.76 763.72L106.76 763.72L106.76 788.96C 106.76 793.13 108.93 795.26 113.28 795.36zM126.87 785.7C 127.99 785.67 129.14 785.36 130.33 784.76C 131.53 784.16 132.64 783.05 133.67 781.43L133.67 781.43L141.21 769.09C 139.52 768.06 138.08 767.46 136.91 767.29C 135.74 767.12 134.71 767.15 133.82 767.39C 132.92 767.62 132.18 768.02 131.57 768.57C 130.96 769.12 130.48 769.69 130.12 770.26L130.12 770.26L121.67 784.09C 122.38 784.49 123.15 784.87 123.97 785.22C 124.78 785.56 125.75 785.72 126.87 785.7zM206.19 765.76L206.19 762.04C 207.36 763.13 208.91 763.57 210.85 763.38C 212.78 763.19 214.76 762.05 216.79 759.96L216.79 759.96L223.65 752.08L223.65 752.08L230.97 761.78L230.97 761.78L230.97 765.76zM109.46 750.19L152.63 750.19C 153.03 747.73 152.76 745.84 151.82 744.51C 150.88 743.17 149.39 742.51 147.35 742.51L147.35 742.51L102.1 742.51C 102.2 745.06 102.85 746.98 104.06 748.26C 105.26 749.55 107.06 750.19 109.46 750.19z" stroke="#FFFFFF" stroke-width="0.75" fill="none" /></g></g></g></g></svg>