<svg xmlns="http://www.w3.org/2000/svg" xmlns:xlink="http://www.w3.org/1999/xlink" id="body_1" preserveAspectRatio="xMinYMin meet" viewBox="0 0 793 1121"><defs><clipPath id="1"><path d="M0 841L0 -0.9199829L0 -0.9199829L595.32 -0.9199829L595.32 -0.9199829L595.32 841L595.32 841L0 841z" /></clipPath><clipPath id="2"><path d="M28.25 219.93L184.2 219.93L184.2 219.93L184.2 136.13L184.2 136.13L28.25 136.13z" /></clipPath><clipPath id="3"><path d="M26.4 131.7L412.03 131.7L412.03 131.7L412.03 101.22L412.03 101.22L26.4 101.22z" /></clipPath><clipPath id="4"><path d="M26.4 131.7L412.03 131.7L412.03 131.7L412.03 101.22L412.03 101.22L26.4 101.22z" /></clipPath><clipPath id="5"><path d="M26.4 131.7L412.03 131.7L412.03 131.7L412.03 101.22L412.03 101.22L26.4 101.22z" /></clipPath><clipPath id="6"><path d="M26.4 131.7L412.03 131.7L412.03 131.7L412.03 101.22L412.03 101.22L26.4 101.22z" /></clipPath><clipPath id="7"><path d="M26.4 131.7L412.03 131.7L412.03 131.7L412.03 101.22L412.03 101.22L26.4 101.22z" /></clipPath><clipPath id="8"><path d="M26.4 131.7L412.03 131.7L412.03 131.7L412.03 101.22L412.03 101.22L26.4 101.22z" /></clipPath><clipPath id="9"><path d="M26.4 131.7L412.03 131.7L412.03 131.7L412.03 101.22L412.03 101.22L26.4 101.22z" /></clipPath><clipPath id="10"><path d="M21.48 446.75L189.77 446.75L189.77 446.75L189.77 229.98L189.77 229.98L21.48 229.98z" /></clipPath><clipPath id="11"><path d="M21.48 446.75L189.77 446.75L189.77 446.75L189.77 229.98L189.77 229.98L21.48 229.98z" /></clipPath><clipPath id="12"><path d="M21.48 446.75L189.77 446.75L189.77 446.75L189.77 229.98L189.77 229.98L21.48 229.98z" /></clipPath><clipPath id="13"><path d="M21.48 446.75L189.77 446.75L189.77 446.75L189.77 229.98L189.77 229.98L21.48 229.98z" /></clipPath><clipPath id="14"><path d="M21.48 446.75L189.77 446.75L189.77 446.75L189.77 229.98L189.77 229.98L21.48 229.98z" /></clipPath><clipPath id="15"><path d="M21.48 446.75L189.77 446.75L189.77 446.75L189.77 229.98L189.77 229.98L21.48 229.98z" /></clipPath><clipPath id="16"><path d="M21.48 446.75L189.77 446.75L189.77 446.75L189.77 229.98L189.77 229.98L21.48 229.98z" /></clipPath><clipPath id="17"><path d="M21.48 446.75L189.77 446.75L189.77 446.75L189.77 229.98L189.77 229.98L21.48 229.98z" /></clipPath><clipPath id="18"><path d="M21.48 446.75L189.77 446.75L189.77 446.75L189.77 229.98L189.77 229.98L21.48 229.98z" /></clipPath><clipPath id="19"><path d="M21.48 446.75L189.77 446.75L189.77 446.75L189.77 229.98L189.77 229.98L21.48 229.98z" /></clipPath><clipPath id="20"><path d="M21.48 446.75L189.77 446.75L189.77 446.75L189.77 229.98L189.77 229.98L21.48 229.98z" /></clipPath><clipPath id="21"><path d="M21.48 446.75L189.77 446.75L189.77 446.75L189.77 229.98L189.77 229.98L21.48 229.98z" /></clipPath><clipPath id="22"><path d="M21.48 446.75L189.77 446.75L189.77 446.75L189.77 229.98L189.77 229.98L21.48 229.98z" /></clipPath><clipPath id="23"><path d="M21.48 446.75L189.77 446.75L189.77 446.75L189.77 229.98L189.77 229.98L21.48 229.98z" /></clipPath><clipPath id="24"><path d="M21.48 446.75L189.77 446.75L189.77 446.75L189.77 229.98L189.77 229.98L21.48 229.98z" /></clipPath><clipPath id="25"><path d="M21.48 446.75L189.77 446.75L189.77 446.75L189.77 229.98L189.77 229.98L21.48 229.98z" /></clipPath><clipPath id="26"><path d="M21.48 446.75L189.77 446.75L189.77 446.75L189.77 229.98L189.77 229.98L21.48 229.98z" /></clipPath><clipPath id="27"><path d="M21.48 446.75L189.77 446.75L189.77 446.75L189.77 229.98L189.77 229.98L21.48 229.98z" /></clipPath><clipPath id="28"><path d="M21.48 446.75L189.77 446.75L189.77 446.75L189.77 229.98L189.77 229.98L21.48 229.98z" /></clipPath><clipPath id="29"><path d="M21.48 446.75L189.77 446.75L189.77 446.75L189.77 229.98L189.77 229.98L21.48 229.98z" /></clipPath><clipPath id="30"><path d="M21.48 446.75L189.77 446.75L189.77 446.75L189.77 229.98L189.77 229.98L21.48 229.98z" /></clipPath><clipPath id="31"><path d="M21.48 446.75L189.77 446.75L189.77 446.75L189.77 229.98L189.77 229.98L21.48 229.98z" /></clipPath><clipPath id="32"><path d="M21.48 446.75L189.77 446.75L189.77 446.75L189.77 229.98L189.77 229.98L21.48 229.98z" /></clipPath><clipPath id="33"><path d="M20.16 557.27L189.05 557.27L189.05 557.27L189.05 451.79L189.05 451.79L20.16 451.79z" /></clipPath><clipPath id="34"><path d="M20.16 557.27L189.05 557.27L189.05 557.27L189.05 451.79L189.05 451.79L20.16 451.79z" /></clipPath><clipPath id="35"><path d="M27.4 556.53L181.8 556.53L181.8 556.53L181.8 456.13L181.8 456.13L27.4 456.13z" /></clipPath><clipPath id="36"><path d="M196.25 542.75L378.91 542.75L378.91 542.75L378.91 136.86L378.91 136.86L196.25 136.86z" /></clipPath><clipPath id="37"><path d="M196.25 542.75L378.91 542.75L378.91 542.75L378.91 136.86L378.91 136.86L196.25 136.86z" /></clipPath><clipPath id="38"><path d="M196.25 542.75L378.91 542.75L378.91 542.75L378.91 136.86L378.91 136.86L196.25 136.86z" /></clipPath><clipPath id="39"><path d="M196.25 542.75L378.91 542.75L378.91 542.75L378.91 136.86L378.91 136.86L196.25 136.86z" /></clipPath><clipPath id="40"><path d="M196.25 542.75L378.91 542.75L378.91 542.75L378.91 136.86L378.91 136.86L196.25 136.86z" /></clipPath><clipPath id="41"><path d="M196.25 542.75L378.91 542.75L378.91 542.75L378.91 136.86L378.91 136.86L196.25 136.86z" /></clipPath><clipPath id="42"><path d="M196.25 542.75L378.91 542.75L378.91 542.75L378.91 136.86L378.91 136.86L196.25 136.86z" /></clipPath><clipPath id="43"><path d="M196.25 542.75L378.91 542.75L378.91 542.75L378.91 136.86L378.91 136.86L196.25 136.86z" /></clipPath><clipPath id="44"><path d="M196.25 542.75L378.91 542.75L378.91 542.75L378.91 136.86L378.91 136.86L196.25 136.86z" /></clipPath><clipPath id="45"><path d="M196.25 542.75L378.91 542.75L378.91 542.75L378.91 136.86L378.91 136.86L196.25 136.86z" /></clipPath><clipPath id="46"><path d="M196.25 542.75L378.91 542.75L378.91 542.75L378.91 136.86L378.91 136.86L196.25 136.86z" /></clipPath><clipPath id="47"><path d="M196.25 542.75L378.91 542.75L378.91 542.75L378.91 136.86L378.91 136.86L196.25 136.86z" /></clipPath><clipPath id="48"><path d="M196.25 542.75L378.91 542.75L378.91 542.75L378.91 136.86L378.91 136.86L196.25 136.86z" /></clipPath><clipPath id="49"><path d="M196.25 542.75L378.91 542.75L378.91 542.75L378.91 136.86L378.91 136.86L196.25 136.86z" /></clipPath><clipPath id="50"><path d="M196.25 542.75L378.91 542.75L378.91 542.75L378.91 136.86L378.91 136.86L196.25 136.86z" /></clipPath><clipPath id="51"><path d="M196.25 542.75L378.91 542.75L378.91 542.75L378.91 136.86L378.91 136.86L196.25 136.86z" /></clipPath><clipPath id="52"><path d="M196.25 542.75L378.91 542.75L378.91 542.75L378.91 136.86L378.91 136.86L196.25 136.86z" /></clipPath><clipPath id="53"><path d="M196.25 542.75L378.91 542.75L378.91 542.75L378.91 136.86L378.91 136.86L196.25 136.86z" /></clipPath><clipPath id="54"><path d="M196.25 542.75L378.91 542.75L378.91 542.75L378.91 136.86L378.91 136.86L196.25 136.86z" /></clipPath><clipPath id="55"><path d="M196.25 542.75L378.91 542.75L378.91 542.75L378.91 136.86L378.91 136.86L196.25 136.86z" /></clipPath><clipPath id="56"><path d="M196.25 542.75L378.91 542.75L378.91 542.75L378.91 136.86L378.91 136.86L196.25 136.86z" /></clipPath><clipPath id="57"><path d="M196.25 542.75L378.91 542.75L378.91 542.75L378.91 136.86L378.91 136.86L196.25 136.86z" /></clipPath><clipPath id="58"><path d="M196.25 542.75L378.91 542.75L378.91 542.75L378.91 136.86L378.91 136.86L196.25 136.86z" /></clipPath><clipPath id="59"><path d="M196.25 542.75L378.91 542.75L378.91 542.75L378.91 136.86L378.91 136.86L196.25 136.86z" /></clipPath><clipPath id="60"><path d="M196.25 542.75L378.91 542.75L378.91 542.75L378.91 136.86L378.91 136.86L196.25 136.86z" /></clipPath><clipPath id="61"><path d="M196.25 542.75L378.91 542.75L378.91 542.75L378.91 136.86L378.91 136.86L196.25 136.86z" /></clipPath><clipPath id="62"><path d="M196.25 542.75L378.91 542.75L378.91 542.75L378.91 136.86L378.91 136.86L196.25 136.86z" /></clipPath><clipPath id="63"><path d="M196.25 542.75L378.91 542.75L378.91 542.75L378.91 136.86L378.91 136.86L196.25 136.86z" /></clipPath><clipPath id="64"><path d="M196.25 542.75L378.91 542.75L378.91 542.75L378.91 136.86L378.91 136.86L196.25 136.86z" /></clipPath><clipPath id="65"><path d="M196.25 542.75L378.91 542.75L378.91 542.75L378.91 136.86L378.91 136.86L196.25 136.86z" /></clipPath><clipPath id="66"><path d="M196.25 542.75L378.91 542.75L378.91 542.75L378.91 136.86L378.91 136.86L196.25 136.86z" /></clipPath><clipPath id="67"><path d="M196.25 542.75L378.91 542.75L378.91 542.75L378.91 136.86L378.91 136.86L196.25 136.86z" /></clipPath><clipPath id="68"><path d="M196.25 542.75L378.91 542.75L378.91 542.75L378.91 136.86L378.91 136.86L196.25 136.86z" /></clipPath><clipPath id="69"><path d="M196.25 542.75L378.91 542.75L378.91 542.75L378.91 136.86L378.91 136.86L196.25 136.86z" /></clipPath><clipPath id="70"><path d="M196.25 542.75L378.91 542.75L378.91 542.75L378.91 136.86L378.91 136.86L196.25 136.86z" /></clipPath><clipPath id="71"><path d="M196.25 542.75L378.91 542.75L378.91 542.75L378.91 136.86L378.91 136.86L196.25 136.86z" /></clipPath><clipPath id="72"><path d="M196.25 542.75L378.91 542.75L378.91 542.75L378.91 136.86L378.91 136.86L196.25 136.86z" /></clipPath><clipPath id="73"><path d="M196.25 542.75L378.91 542.75L378.91 542.75L378.91 136.86L378.91 136.86L196.25 136.86z" /></clipPath><clipPath id="74"><path d="M196.25 542.75L378.91 542.75L378.91 542.75L378.91 136.86L378.91 136.86L196.25 136.86z" /></clipPath><clipPath id="75"><path d="M196.25 542.75L378.91 542.75L378.91 542.75L378.91 136.86L378.91 136.86L196.25 136.86z" /></clipPath><clipPath id="76"><path d="M196.25 542.75L378.91 542.75L378.91 542.75L378.91 136.86L378.91 136.86L196.25 136.86z" /></clipPath><clipPath id="77"><path d="M196.25 542.75L378.91 542.75L378.91 542.75L378.91 136.86L378.91 136.86L196.25 136.86z" /></clipPath><clipPath id="78"><path d="M196.25 542.75L378.91 542.75L378.91 542.75L378.91 136.86L378.91 136.86L196.25 136.86z" /></clipPath><clipPath id="79"><path d="M196.25 542.75L378.91 542.75L378.91 542.75L378.91 136.86L378.91 136.86L196.25 136.86z" /></clipPath><clipPath id="80"><path d="M196.25 542.75L378.91 542.75L378.91 542.75L378.91 136.86L378.91 136.86L196.25 136.86z" /></clipPath><clipPath id="81"><path d="M196.25 542.75L378.91 542.75L378.91 542.75L378.91 136.86L378.91 136.86L196.25 136.86z" /></clipPath><clipPath id="82"><path d="M196.25 542.75L378.91 542.75L378.91 542.75L378.91 136.86L378.91 136.86L196.25 136.86z" /></clipPath><clipPath id="83"><path d="M196.25 542.75L378.91 542.75L378.91 542.75L378.91 136.86L378.91 136.86L196.25 136.86z" /></clipPath><clipPath id="84"><path d="M196.25 542.75L378.91 542.75L378.91 542.75L378.91 136.86L378.91 136.86L196.25 136.86z" /></clipPath><clipPath id="85"><path d="M196.25 542.75L378.91 542.75L378.91 542.75L378.91 136.86L378.91 136.86L196.25 136.86z" /></clipPath><clipPath id="86"><path d="M196.25 542.75L378.91 542.75L378.91 542.75L378.91 136.86L378.91 136.86L196.25 136.86z" /></clipPath><clipPath id="87"><path d="M196.25 542.75L378.91 542.75L378.91 542.75L378.91 136.86L378.91 136.86L196.25 136.86z" /></clipPath><clipPath id="88"><path d="M196.25 542.75L378.91 542.75L378.91 542.75L378.91 136.86L378.91 136.86L196.25 136.86z" /></clipPath><clipPath id="89"><path d="M196.25 542.75L378.91 542.75L378.91 542.75L378.91 136.86L378.91 136.86L196.25 136.86z" /></clipPath><clipPath id="90"><path d="M196.25 542.75L378.91 542.75L378.91 542.75L378.91 136.86L378.91 136.86L196.25 136.86z" /></clipPath><clipPath id="91"><path d="M196.25 542.75L378.91 542.75L378.91 542.75L378.91 136.86L378.91 136.86L196.25 136.86z" /></clipPath><clipPath id="92"><path d="M196.25 542.75L378.91 542.75L378.91 542.75L378.91 136.86L378.91 136.86L196.25 136.86z" /></clipPath><clipPath id="93"><path d="M196.25 542.75L378.91 542.75L378.91 542.75L378.91 136.86L378.91 136.86L196.25 136.86z" /></clipPath><clipPath id="94"><path d="M196.25 542.75L378.91 542.75L378.91 542.75L378.91 136.86L378.91 136.86L196.25 136.86z" /></clipPath><clipPath id="95"><path d="M196.25 542.75L378.91 542.75L378.91 542.75L378.91 136.86L378.91 136.86L196.25 136.86z" /></clipPath><clipPath id="96"><path d="M196.25 542.75L378.91 542.75L378.91 542.75L378.91 136.86L378.91 136.86L196.25 136.86z" /></clipPath><clipPath id="97"><path d="M196.25 542.75L378.91 542.75L378.91 542.75L378.91 136.86L378.91 136.86L196.25 136.86z" /></clipPath><clipPath id="98"><path d="M196.25 542.75L378.91 542.75L378.91 542.75L378.91 136.86L378.91 136.86L196.25 136.86z" /></clipPath><clipPath id="99"><path d="M196.25 542.75L378.91 542.75L378.91 542.75L378.91 136.86L378.91 136.86L196.25 136.86z" /></clipPath><clipPath id="100"><path d="M196.25 542.75L378.91 542.75L378.91 542.75L378.91 136.86L378.91 136.86L196.25 136.86z" /></clipPath><clipPath id="101"><path d="M196.25 542.75L378.91 542.75L378.91 542.75L378.91 136.86L378.91 136.86L196.25 136.86z" /></clipPath><clipPath id="102"><path d="M196.25 542.75L378.91 542.75L378.91 542.75L378.91 136.86L378.91 136.86L196.25 136.86z" /></clipPath><clipPath id="103"><path d="M196.25 542.75L378.91 542.75L378.91 542.75L378.91 136.86L378.91 136.86L196.25 136.86z" /></clipPath><clipPath id="104"><path d="M196.25 542.75L378.91 542.75L378.91 542.75L378.91 136.86L378.91 136.86L196.25 136.86z" /></clipPath><clipPath id="105"><path d="M196.25 542.75L378.91 542.75L378.91 542.75L378.91 136.86L378.91 136.86L196.25 136.86z" /></clipPath><clipPath id="106"><path d="M196.25 542.75L378.91 542.75L378.91 542.75L378.91 136.86L378.91 136.86L196.25 136.86z" /></clipPath><clipPath id="107"><path d="M196.25 542.75L378.91 542.75L378.91 542.75L378.91 136.86L378.91 136.86L196.25 136.86z" /></clipPath><clipPath id="108"><path d="M196.25 542.75L378.91 542.75L378.91 542.75L378.91 136.86L378.91 136.86L196.25 136.86z" /></clipPath><clipPath id="109"><path d="M380.71 825.76L577.68 825.76L577.68 825.76L577.68 235.62L577.68 235.62L380.71 235.62z" /></clipPath><clipPath id="110"><path d="M380.71 825.76L577.68 825.76L577.68 825.76L577.68 235.62L577.68 235.62L380.71 235.62z" /></clipPath><clipPath id="111"><path d="M380.71 825.76L577.68 825.76L577.68 825.76L577.68 235.62L577.68 235.62L380.71 235.62z" /></clipPath><clipPath id="112"><path d="M380.71 825.76L577.68 825.76L577.68 825.76L577.68 235.62L577.68 235.62L380.71 235.62z" /></clipPath><clipPath id="113"><path d="M380.71 825.76L577.68 825.76L577.68 825.76L577.68 235.62L577.68 235.62L380.71 235.62z" /></clipPath><clipPath id="114"><path d="M380.71 825.76L577.68 825.76L577.68 825.76L577.68 235.62L577.68 235.62L380.71 235.62z" /></clipPath><clipPath id="115"><path d="M380.71 825.76L577.68 825.76L577.68 825.76L577.68 235.62L577.68 235.62L380.71 235.62z" /></clipPath><clipPath id="116"><path d="M380.71 825.76L577.68 825.76L577.68 825.76L577.68 235.62L577.68 235.62L380.71 235.62z" /></clipPath><clipPath id="117"><path d="M380.71 825.76L577.68 825.76L577.68 825.76L577.68 235.62L577.68 235.62L380.71 235.62z" /></clipPath><clipPath id="118"><path d="M380.71 825.76L577.68 825.76L577.68 825.76L577.68 235.62L577.68 235.62L380.71 235.62z" /></clipPath><clipPath id="119"><path d="M380.71 825.76L577.68 825.76L577.68 825.76L577.68 235.62L577.68 235.62L380.71 235.62z" /></clipPath><clipPath id="120"><path d="M380.71 825.76L577.68 825.76L577.68 825.76L577.68 235.62L577.68 235.62L380.71 235.62z" /></clipPath><clipPath id="121"><path d="M380.71 825.76L577.68 825.76L577.68 825.76L577.68 235.62L577.68 235.62L380.71 235.62z" /></clipPath><clipPath id="122"><path d="M380.71 825.76L577.68 825.76L577.68 825.76L577.68 235.62L577.68 235.62L380.71 235.62z" /></clipPath><clipPath id="123"><path d="M380.71 825.76L577.68 825.76L577.68 825.76L577.68 235.62L577.68 235.62L380.71 235.62z" /></clipPath><clipPath id="124"><path d="M380.71 825.76L577.68 825.76L577.68 825.76L577.68 235.62L577.68 235.62L380.71 235.62z" /></clipPath><clipPath id="125"><path d="M380.71 825.76L577.68 825.76L577.68 825.76L577.68 235.62L577.68 235.62L380.71 235.62z" /></clipPath><clipPath id="126"><path d="M380.71 825.76L577.68 825.76L577.68 825.76L577.68 235.62L577.68 235.62L380.71 235.62z" /></clipPath><clipPath id="127"><path d="M380.71 825.76L577.68 825.76L577.68 825.76L577.68 235.62L577.68 235.62L380.71 235.62z" /></clipPath><clipPath id="128"><path d="M380.71 825.76L577.68 825.76L577.68 825.76L577.68 235.62L577.68 235.62L380.71 235.62z" /></clipPath><clipPath id="129"><path d="M380.71 825.76L577.68 825.76L577.68 825.76L577.68 235.62L577.68 235.62L380.71 235.62z" /></clipPath><clipPath id="130"><path d="M380.71 825.76L577.68 825.76L577.68 825.76L577.68 235.62L577.68 235.62L380.71 235.62z" /></clipPath><clipPath id="131"><path d="M380.71 825.76L577.68 825.76L577.68 825.76L577.68 235.62L577.68 235.62L380.71 235.62z" /></clipPath><clipPath id="132"><path d="M380.71 825.76L577.68 825.76L577.68 825.76L577.68 235.62L577.68 235.62L380.71 235.62z" /></clipPath><clipPath id="133"><path d="M380.71 825.76L577.68 825.76L577.68 825.76L577.68 235.62L577.68 235.62L380.71 235.62z" /></clipPath><clipPath id="134"><path d="M380.71 825.76L577.68 825.76L577.68 825.76L577.68 235.62L577.68 235.62L380.71 235.62z" /></clipPath><clipPath id="135"><path d="M380.71 825.76L577.68 825.76L577.68 825.76L577.68 235.62L577.68 235.62L380.71 235.62z" /></clipPath><clipPath id="136"><path d="M380.71 825.76L577.68 825.76L577.68 825.76L577.68 235.62L577.68 235.62L380.71 235.62z" /></clipPath><clipPath id="137"><path d="M380.71 825.76L577.68 825.76L577.68 825.76L577.68 235.62L577.68 235.62L380.71 235.62z" /></clipPath><clipPath id="138"><path d="M380.71 825.76L577.68 825.76L577.68 825.76L577.68 235.62L577.68 235.62L380.71 235.62z" /></clipPath><clipPath id="139"><path d="M380.71 825.76L577.68 825.76L577.68 825.76L577.68 235.62L577.68 235.62L380.71 235.62z" /></clipPath><clipPath id="140"><path d="M380.71 825.76L577.68 825.76L577.68 825.76L577.68 235.62L577.68 235.62L380.71 235.62z" /></clipPath><clipPath id="141"><path d="M380.71 825.76L577.68 825.76L577.68 825.76L577.68 235.62L577.68 235.62L380.71 235.62z" /></clipPath><clipPath id="142"><path d="M380.71 825.76L577.68 825.76L577.68 825.76L577.68 235.62L577.68 235.62L380.71 235.62z" /></clipPath><clipPath id="143"><path d="M380.71 825.76L577.68 825.76L577.68 825.76L577.68 235.62L577.68 235.62L380.71 235.62z" /></clipPath><clipPath id="144"><path d="M380.71 825.76L577.68 825.76L577.68 825.76L577.68 235.62L577.68 235.62L380.71 235.62z" /></clipPath><clipPath id="145"><path d="M380.71 825.76L577.68 825.76L577.68 825.76L577.68 235.62L577.68 235.62L380.71 235.62z" /></clipPath><clipPath id="146"><path d="M380.71 825.76L577.68 825.76L577.68 825.76L577.68 235.62L577.68 235.62L380.71 235.62z" /></clipPath><clipPath id="147"><path d="M380.71 825.76L577.68 825.76L577.68 825.76L577.68 235.62L577.68 235.62L380.71 235.62z" /></clipPath><clipPath id="148"><path d="M380.71 825.76L577.68 825.76L577.68 825.76L577.68 235.62L577.68 235.62L380.71 235.62z" /></clipPath><clipPath id="149"><path d="M380.71 825.76L577.68 825.76L577.68 825.76L577.68 235.62L577.68 235.62L380.71 235.62z" /></clipPath><clipPath id="150"><path d="M380.71 825.76L577.68 825.76L577.68 825.76L577.68 235.62L577.68 235.62L380.71 235.62z" /></clipPath><clipPath id="151"><path d="M380.71 825.76L577.68 825.76L577.68 825.76L577.68 235.62L577.68 235.62L380.71 235.62z" /></clipPath><clipPath id="152"><path d="M380.71 825.76L577.68 825.76L577.68 825.76L577.68 235.62L577.68 235.62L380.71 235.62z" /></clipPath><clipPath id="153"><path d="M380.71 825.76L577.68 825.76L577.68 825.76L577.68 235.62L577.68 235.62L380.71 235.62z" /></clipPath><clipPath id="154"><path d="M380.71 825.76L577.68 825.76L577.68 825.76L577.68 235.62L577.68 235.62L380.71 235.62z" /></clipPath><clipPath id="155"><path d="M380.71 825.76L577.68 825.76L577.68 825.76L577.68 235.62L577.68 235.62L380.71 235.62z" /></clipPath><clipPath id="156"><path d="M380.71 825.76L577.68 825.76L577.68 825.76L577.68 235.62L577.68 235.62L380.71 235.62z" /></clipPath><clipPath id="157"><path d="M380.71 825.76L577.68 825.76L577.68 825.76L577.68 235.62L577.68 235.62L380.71 235.62z" /></clipPath><clipPath id="158"><path d="M380.71 825.76L577.68 825.76L577.68 825.76L577.68 235.62L577.68 235.62L380.71 235.62z" /></clipPath><clipPath id="159"><path d="M380.71 825.76L577.68 825.76L577.68 825.76L577.68 235.62L577.68 235.62L380.71 235.62z" /></clipPath><clipPath id="160"><path d="M380.71 825.76L577.68 825.76L577.68 825.76L577.68 235.62L577.68 235.62L380.71 235.62z" /></clipPath><clipPath id="161"><path d="M380.71 825.76L577.68 825.76L577.68 825.76L577.68 235.62L577.68 235.62L380.71 235.62z" /></clipPath><clipPath id="162"><path d="M380.71 825.76L577.68 825.76L577.68 825.76L577.68 235.62L577.68 235.62L380.71 235.62z" /></clipPath><clipPath id="163"><path d="M380.71 825.76L577.68 825.76L577.68 825.76L577.68 235.62L577.68 235.62L380.71 235.62z" /></clipPath><clipPath id="164"><path d="M380.71 825.76L577.68 825.76L577.68 825.76L577.68 235.62L577.68 235.62L380.71 235.62z" /></clipPath><clipPath id="165"><path d="M380.71 825.76L577.68 825.76L577.68 825.76L577.68 235.62L577.68 235.62L380.71 235.62z" /></clipPath><clipPath id="166"><path d="M380.71 825.76L577.68 825.76L577.68 825.76L577.68 235.62L577.68 235.62L380.71 235.62z" /></clipPath><clipPath id="167"><path d="M380.71 825.76L577.68 825.76L577.68 825.76L577.68 235.62L577.68 235.62L380.71 235.62z" /></clipPath><clipPath id="168"><path d="M380.71 825.76L577.68 825.76L577.68 825.76L577.68 235.62L577.68 235.62L380.71 235.62z" /></clipPath><clipPath id="169"><path d="M380.71 825.76L577.68 825.76L577.68 825.76L577.68 235.62L577.68 235.62L380.71 235.62z" /></clipPath><clipPath id="170"><path d="M390.19 241.74L558.45 241.74L558.45 241.74L558.45 129.54L558.45 129.54L390.19 129.54z" /></clipPath><clipPath id="171"><path d="M390.19 241.74L558.45 241.74L558.45 241.74L558.45 129.54L558.45 129.54L390.19 129.54z" /></clipPath><clipPath id="172"><path d="M397.35 241.72L550.7 241.72L550.7 241.72L550.7 134.7L550.7 134.7L397.35 134.7z" /></clipPath><clipPath id="173"><path d="M18.96 822.4L189.05 822.4L189.05 822.4L189.05 569.39L189.05 569.39L18.96 569.39z" /></clipPath><clipPath id="174"><path d="M18.96 822.4L189.05 822.4L189.05 822.4L189.05 569.39L189.05 569.39L18.96 569.39z" /></clipPath><clipPath id="175"><path d="M18.96 822.4L189.05 822.4L189.05 822.4L189.05 569.39L189.05 569.39L18.96 569.39z" /></clipPath><clipPath id="176"><path d="M18.96 822.4L189.05 822.4L189.05 822.4L189.05 569.39L189.05 569.39L18.96 569.39z" /></clipPath><clipPath id="177"><path d="M18.96 822.4L189.05 822.4L189.05 822.4L189.05 569.39L189.05 569.39L18.96 569.39z" /></clipPath><clipPath id="178"><path d="M18.96 822.4L189.05 822.4L189.05 822.4L189.05 569.39L189.05 569.39L18.96 569.39z" /></clipPath><clipPath id="179"><path d="M18.96 822.4L189.05 822.4L189.05 822.4L189.05 569.39L189.05 569.39L18.96 569.39z" /></clipPath><clipPath id="180"><path d="M18.96 822.4L189.05 822.4L189.05 822.4L189.05 569.39L189.05 569.39L18.96 569.39z" /></clipPath><clipPath id="181"><path d="M18.96 822.4L189.05 822.4L189.05 822.4L189.05 569.39L189.05 569.39L18.96 569.39z" /></clipPath><clipPath id="182"><path d="M18.96 822.4L189.05 822.4L189.05 822.4L189.05 569.39L189.05 569.39L18.96 569.39z" /></clipPath><clipPath id="183"><path d="M18.96 822.4L189.05 822.4L189.05 822.4L189.05 569.39L189.05 569.39L18.96 569.39z" /></clipPath><clipPath id="184"><path d="M18.96 822.4L189.05 822.4L189.05 822.4L189.05 569.39L189.05 569.39L18.96 569.39z" /></clipPath><clipPath id="185"><path d="M18.96 822.4L189.05 822.4L189.05 822.4L189.05 569.39L189.05 569.39L18.96 569.39z" /></clipPath><clipPath id="186"><path d="M18.96 822.4L189.05 822.4L189.05 822.4L189.05 569.39L189.05 569.39L18.96 569.39z" /></clipPath><clipPath id="187"><path d="M18.96 822.4L189.05 822.4L189.05 822.4L189.05 569.39L189.05 569.39L18.96 569.39z" /></clipPath><clipPath id="188"><path d="M18.96 822.4L189.05 822.4L189.05 822.4L189.05 569.39L189.05 569.39L18.96 569.39z" /></clipPath><clipPath id="189"><path d="M18.96 822.4L189.05 822.4L189.05 822.4L189.05 569.39L189.05 569.39L18.96 569.39z" /></clipPath><clipPath id="190"><path d="M18.96 822.4L189.05 822.4L189.05 822.4L189.05 569.39L189.05 569.39L18.96 569.39z" /></clipPath><clipPath id="191"><path d="M18.96 822.4L189.05 822.4L189.05 822.4L189.05 569.39L189.05 569.39L18.96 569.39z" /></clipPath><clipPath id="192"><path d="M18.96 822.4L189.05 822.4L189.05 822.4L189.05 569.39L189.05 569.39L18.96 569.39z" /></clipPath><clipPath id="193"><path d="M18.96 822.4L189.05 822.4L189.05 822.4L189.05 569.39L189.05 569.39L18.96 569.39z" /></clipPath><clipPath id="194"><path d="M18.96 822.4L189.05 822.4L189.05 822.4L189.05 569.39L189.05 569.39L18.96 569.39z" /></clipPath><clipPath id="195"><path d="M18.96 822.4L189.05 822.4L189.05 822.4L189.05 569.39L189.05 569.39L18.96 569.39z" /></clipPath><clipPath id="196"><path d="M18.96 822.4L189.05 822.4L189.05 822.4L189.05 569.39L189.05 569.39L18.96 569.39z" /></clipPath><clipPath id="197"><path d="M18.96 822.4L189.05 822.4L189.05 822.4L189.05 569.39L189.05 569.39L18.96 569.39z" /></clipPath><clipPath id="198"><path d="M18.96 822.4L189.05 822.4L189.05 822.4L189.05 569.39L189.05 569.39L18.96 569.39z" /></clipPath><clipPath id="199"><path d="M18.96 822.4L189.05 822.4L189.05 822.4L189.05 569.39L189.05 569.39L18.96 569.39z" /></clipPath><clipPath id="200"><path d="M18.96 822.4L189.05 822.4L189.05 822.4L189.05 569.39L189.05 569.39L18.96 569.39z" /></clipPath><clipPath id="201"><path d="M18.96 822.4L189.05 822.4L189.05 822.4L189.05 569.39L189.05 569.39L18.96 569.39z" /></clipPath><clipPath id="202"><path d="M18.96 822.4L189.05 822.4L189.05 822.4L189.05 569.39L189.05 569.39L18.96 569.39z" /></clipPath><clipPath id="203"><path d="M18.96 822.4L189.05 822.4L189.05 822.4L189.05 569.39L189.05 569.39L18.96 569.39z" /></clipPath><clipPath id="204"><path d="M18.96 822.4L189.05 822.4L189.05 822.4L189.05 569.39L189.05 569.39L18.96 569.39z" /></clipPath><clipPath id="205"><path d="M18.96 822.4L189.05 822.4L189.05 822.4L189.05 569.39L189.05 569.39L18.96 569.39z" /></clipPath><clipPath id="206"><path d="M18.96 822.4L189.05 822.4L189.05 822.4L189.05 569.39L189.05 569.39L18.96 569.39z" /></clipPath><clipPath id="207"><path d="M18.96 822.4L189.05 822.4L189.05 822.4L189.05 569.39L189.05 569.39L18.96 569.39z" /></clipPath><clipPath id="208"><path d="M18.96 822.4L189.05 822.4L189.05 822.4L189.05 569.39L189.05 569.39L18.96 569.39z" /></clipPath><clipPath id="209"><path d="M18.96 822.4L189.05 822.4L189.05 822.4L189.05 569.39L189.05 569.39L18.96 569.39z" /></clipPath><clipPath id="210"><path d="M18.96 822.4L189.05 822.4L189.05 822.4L189.05 569.39L189.05 569.39L18.96 569.39z" /></clipPath><clipPath id="211"><path d="M210.65 769.456L374.35 769.456L374.35 769.456L374.35 542.396L374.35 542.396L210.65 542.396z" /></clipPath><clipPath id="212"><path d="M210.65 769.456L374.35 769.456L374.35 769.456L374.35 542.396L374.35 542.396L210.65 542.396z" /></clipPath><clipPath id="213"><path d="M217.8 739L357.75 739L357.75 739L357.75 548.05L357.75 548.05L217.8 548.05z" /></clipPath><clipPath id="214"><path d="M0 840.9998L595.32 840.9998L595.32 840.9998L595.32 -0.920166L595.32 -0.920166L0 -0.920166z" /></clipPath><clipPath id="215"><path d="M36.24 95.08002L276 95.08002L276 95.08002L276 -0.9199829L276 -0.9199829L36.24 -0.9199829z" /></clipPath><clipPath id="216"><path d="M36.24 95.08002L276 95.08002L276 95.08002L276 -0.9199829L276 -0.9199829L36.24 -0.9199829z" /></clipPath><clipPath id="217"><path d="M36.24 95.08002L276 95.08002L276 95.08002L276 -0.9199829L276 -0.9199829L36.24 -0.9199829z" /></clipPath></defs><g transform="matrix(1.333333 0 0 1.333333 0 0)"><g><g clip-path="url(#1)"><g clip-path="url(#2)"><g transform="matrix(-0.4331945 0 0 0.4319588 184.2 136.13)"><g transform="matrix(1 0 0 1 0 0)"><image x="0" y="0" xlink:href="img_01.png" width="360" height="194" /></g></g></g><path transform="matrix(1 0 0 -1 0 841)" d="M26.1 705.42L412.25 705.42L412.25 705.42L412.25 743.62L412.25 743.62L26.1 743.62z" stroke="none" fill="#FFFFFF" fill-rule="evenodd" /><g clip-path="url(#3)"><g clip-path="url(#4)"></g><g clip-path="url(#5)"></g><g clip-path="url(#6)"></g><g clip-path="url(#7)"></g><g clip-path="url(#8)"></g><g clip-path="url(#9)"></g></g><path transform="matrix(1 0 0 -1 0 841)" d="M21.2 390.52L189.95 390.52L189.95 390.52L189.95 614.87L189.95 614.87L21.2 614.87z" stroke="none" fill="#FFFFFF" fill-rule="evenodd" /><g clip-path="url(#10)"><g clip-path="url(#11)"></g><g clip-path="url(#12)"></g><g clip-path="url(#13)"></g><g clip-path="url(#14)"></g><g clip-path="url(#15)"></g><g clip-path="url(#16)"></g><g clip-path="url(#17)"></g><g clip-path="url(#18)"></g><g clip-path="url(#19)"></g><g clip-path="url(#20)"></g><g clip-path="url(#21)"></g><g clip-path="url(#22)"></g><g clip-path="url(#23)"></g><g clip-path="url(#24)"></g><g clip-path="url(#25)"></g><g clip-path="url(#26)"></g><g clip-path="url(#27)"></g><g clip-path="url(#28)"></g><g clip-path="url(#29)"></g><g clip-path="url(#30)"></g><g clip-path="url(#31)"></g><g clip-path="url(#32)"></g></g><path transform="matrix(1 0 0 -1 0 841)" d="M19.95 279.92L189.25 279.92L189.25 279.92L189.25 393.07L189.25 393.07L19.95 393.07z" stroke="none" fill="#FFFFFF" fill-rule="evenodd" /><g clip-path="url(#33)"><g clip-path="url(#34)"></g></g><g clip-path="url(#35)"><g transform="matrix(0.3275896 0 0 0.3270358 27.4 456.13)"><g transform="matrix(1 0 0 1 0 0)"><image x="0" y="0" xlink:href="img_02.png" width="502" height="307" /></g></g></g><path transform="matrix(1 0 0 -1 0 841)" d="M195.95 294.42L379.1 294.42L379.1 294.42L379.1 707.97L379.1 707.97L195.95 707.97z" stroke="none" fill="#FFFFFF" fill-rule="evenodd" /><g clip-path="url(#36)"><g clip-path="url(#37)"></g><g clip-path="url(#38)"></g><g clip-path="url(#39)"></g><g clip-path="url(#40)"></g><g clip-path="url(#41)"></g><g clip-path="url(#42)"></g><g clip-path="url(#43)"></g><g clip-path="url(#44)"></g><g clip-path="url(#45)"></g><g clip-path="url(#46)"></g><g clip-path="url(#47)"></g><g clip-path="url(#48)"></g><g clip-path="url(#49)"></g><g clip-path="url(#50)"></g><g clip-path="url(#51)"></g><g clip-path="url(#52)"></g><g clip-path="url(#53)"></g><g clip-path="url(#54)"></g><g clip-path="url(#55)"></g><g clip-path="url(#56)"></g><g clip-path="url(#57)"></g><g clip-path="url(#58)"></g><g clip-path="url(#59)"></g><g clip-path="url(#60)"></g><g clip-path="url(#61)"></g><g clip-path="url(#62)"></g><g clip-path="url(#63)"></g><g clip-path="url(#64)"></g><g clip-path="url(#65)"></g><g clip-path="url(#66)"></g><g clip-path="url(#67)"></g><g clip-path="url(#68)"></g><g clip-path="url(#69)"></g><g clip-path="url(#70)"></g><g clip-path="url(#71)"></g><g clip-path="url(#72)"></g><g clip-path="url(#73)"></g><g clip-path="url(#74)"></g><g clip-path="url(#75)"></g><g clip-path="url(#76)"></g><g clip-path="url(#77)"></g><g clip-path="url(#78)"></g><g clip-path="url(#79)"></g><g clip-path="url(#80)"></g><g clip-path="url(#81)"></g><g clip-path="url(#82)"></g><g clip-path="url(#83)"></g><g clip-path="url(#84)"></g><g clip-path="url(#85)"></g><g clip-path="url(#86)"></g><g clip-path="url(#87)"></g><g clip-path="url(#88)"></g><g clip-path="url(#89)"></g><g clip-path="url(#90)"></g><g clip-path="url(#91)"></g><g clip-path="url(#92)"></g><g clip-path="url(#93)"></g><g clip-path="url(#94)"></g><g clip-path="url(#95)"></g><g clip-path="url(#96)"></g><g clip-path="url(#97)"></g><g clip-path="url(#98)"></g><g clip-path="url(#99)"></g><g clip-path="url(#100)"></g><g clip-path="url(#101)"></g><g clip-path="url(#102)"></g><g clip-path="url(#103)"></g><g clip-path="url(#104)"></g><g clip-path="url(#105)"></g><g clip-path="url(#106)"></g><g clip-path="url(#107)"></g><g clip-path="url(#108)"></g></g><path transform="matrix(1 0 0 -1 0 841)" d="M380.4 11.57L577.85 11.57L577.85 11.57L577.85 609.27L577.85 609.27L380.4 609.27z" stroke="none" fill="#FFFFFF" fill-rule="evenodd" /><g clip-path="url(#109)"><g clip-path="url(#110)"></g><g clip-path="url(#111)"></g><g clip-path="url(#112)"></g><g clip-path="url(#113)"></g><g clip-path="url(#114)"></g><g clip-path="url(#115)"></g><g clip-path="url(#116)"></g><g clip-path="url(#117)"></g><g clip-path="url(#118)"></g><g clip-path="url(#119)"></g><g clip-path="url(#120)"></g><g clip-path="url(#121)"></g><g clip-path="url(#122)"></g><g clip-path="url(#123)"></g><g clip-path="url(#124)"></g><g clip-path="url(#125)"></g><g clip-path="url(#126)"></g><g clip-path="url(#127)"></g><g clip-path="url(#128)"></g><g clip-path="url(#129)"></g><g clip-path="url(#130)"></g><g clip-path="url(#131)"></g><g clip-path="url(#132)"></g><g clip-path="url(#133)"></g><g clip-path="url(#134)"></g><g clip-path="url(#135)"></g><g clip-path="url(#136)"></g><g clip-path="url(#137)"></g><g clip-path="url(#138)"></g><g clip-path="url(#139)"></g><g clip-path="url(#140)"></g><g clip-path="url(#141)"></g><g clip-path="url(#142)"></g><g clip-path="url(#143)"></g><g clip-path="url(#144)"></g><g clip-path="url(#145)"></g><g clip-path="url(#146)"></g><g clip-path="url(#147)"></g><g clip-path="url(#148)"></g><g clip-path="url(#149)"></g><g clip-path="url(#150)"></g><g clip-path="url(#151)"></g><g clip-path="url(#152)"></g><g clip-path="url(#153)"></g><g clip-path="url(#154)"></g><g clip-path="url(#155)"></g><g clip-path="url(#156)"></g><g clip-path="url(#157)"></g><g clip-path="url(#158)"></g><g clip-path="url(#159)"></g><g clip-path="url(#160)"></g><g clip-path="url(#161)"></g><g clip-path="url(#162)"></g><g clip-path="url(#163)"></g><g clip-path="url(#164)"></g><g clip-path="url(#165)"></g><g clip-path="url(#166)"></g><g clip-path="url(#167)"></g><g clip-path="url(#168)"></g><g clip-path="url(#169)"></g></g><path transform="matrix(1 0 0 -1 0 841)" d="M389.9 595.37L558.65 595.37L558.65 595.37L558.65 715.32L558.65 715.32L389.9 715.32z" stroke="none" fill="#FFFFFF" fill-rule="evenodd" /><g clip-path="url(#170)"><g clip-path="url(#171)"></g></g><g clip-path="url(#172)"><g transform="matrix(0.4035527 0 0 0.5232143 397.35 134.7)"><g transform="matrix(1 0 0 1 0 0)"><image x="0" y="0" xlink:href="img_03.png" width="380" height="308" /></g></g></g><path transform="matrix(1 0 0 -1 0 841)" d="M18.65 14.92L189.3 14.92L189.3 14.92L189.3 275.57L189.3 275.57L18.65 275.57z" stroke="none" fill="#FFFFFF" fill-rule="evenodd" /><g clip-path="url(#173)"><g clip-path="url(#174)"></g><g clip-path="url(#175)"></g><g clip-path="url(#176)"></g><g clip-path="url(#177)"></g><g clip-path="url(#178)"></g><g clip-path="url(#179)"></g><g clip-path="url(#180)"></g><g clip-path="url(#181)"></g><g clip-path="url(#182)"></g><g clip-path="url(#183)"></g><g clip-path="url(#184)"></g><g clip-path="url(#185)"></g><g clip-path="url(#186)"></g><g clip-path="url(#187)"></g><g clip-path="url(#188)"></g><g clip-path="url(#189)"></g><g clip-path="url(#190)"></g><g clip-path="url(#191)"></g><g clip-path="url(#192)"></g><g clip-path="url(#193)"></g><g clip-path="url(#194)"></g><g clip-path="url(#195)"></g><g clip-path="url(#196)"></g><g clip-path="url(#197)"></g><g clip-path="url(#198)"></g><g clip-path="url(#199)"></g><g clip-path="url(#200)"></g><g clip-path="url(#201)"></g><g clip-path="url(#202)"></g><g clip-path="url(#203)"></g><g clip-path="url(#204)"></g><g clip-path="url(#205)"></g><g clip-path="url(#206)"></g><g clip-path="url(#207)"></g><g clip-path="url(#208)"></g><g clip-path="url(#209)"></g><g clip-path="url(#210)"></g></g><path transform="matrix(1 0 0 -1 0 841)" d="M210.3 67.82L374.55 67.82L374.55 67.82L374.55 302.57L374.55 302.57L210.3 302.57z" stroke="none" fill="#FFFFFF" fill-rule="evenodd" /><g clip-path="url(#211)"><g clip-path="url(#212)"></g></g><g clip-path="url(#213)"><g transform="matrix(0.3271028 0 0 0.32753 217.75 548.05)"><g transform="matrix(1 0 0 1 0 0)"><image x="0" y="0" xlink:href="img_04.png" width="428" height="583" /></g></g></g><g clip-path="url(#214)"><path transform="matrix(1 0 0 -1 0 841)" d="M36 741.96L276.36 741.96L276.36 741.96L276.36 864.72L276.36 864.72L36 864.72z" stroke="#000000" stroke-width="0.14" fill="none" stroke-opacity="0" /></g><g clip-path="url(#215)"><g transform="matrix(0.3595283 0 0 0.3585437 48.24 17.79999)"><g transform="matrix(1 0 0 1 0 0)"><image x="0" y="0" xlink:href="img_05.png" width="636" height="206" /></g></g></g><g clip-path="url(#216)"><path transform="matrix(1 0 0 -1 0 841)" d="M277.47 814.32L314.25 814.32L314.25 814.32L314.25 762.46L314.25 762.46L277.47 762.46zM284.14 807.77L284.14 769.02L284.14 769.02L307.3 769.02L307.3 769.02L307.3 807.77zM203.82 823.62C 204.49 823.62 205.22 823.58 206.01 823.51L206.01 823.51L206.01 813.26L206.01 813.26L213.87 813.26C 214.05 810.94 213.79 809.13 213.1 807.82C 212.41 806.51 211.25 805.72 209.64 805.44L209.64 805.44L206.01 805.44L206.01 805.44L206.01 788.1L206.01 788.1L212.88 790.43C 214 788.24 214.3 786.31 213.78 784.66C 213.26 783 211.78 781.8 209.35 781.05L209.35 781.05L206.01 779.79L206.01 779.79L206.01 761.92C 206.01 761.04 206.02 760.22 206.04 759.44C 206.07 758.67 205.9 757.83 205.56 756.92C 205.21 756.02 204.54 755.24 203.55 754.6C 202.55 753.95 201.06 753.63 199.06 753.63L199.06 753.63L189.96 753.71C 189.62 756.05 190.06 757.95 191.29 759.41C 192.52 760.87 194.12 761.57 196.07 761.52L196.07 761.52L197.5 761.52L197.5 761.52L197.5 777.31L197.5 777.31L190.23 774.62C 189.52 776.33 189.23 777.7 189.35 778.74C 189.47 779.79 189.78 780.67 190.26 781.39C 190.73 782.11 191.3 782.65 191.96 783.02C 192.61 783.38 193.11 783.63 193.44 783.76L193.44 783.76L197.5 785.39L197.5 785.39L197.5 805.44L197.5 805.44L189.52 805.44C 189.23 807.94 189.47 809.86 190.22 811.22C 190.98 812.58 192.28 813.26 194.12 813.26L194.12 813.26L197.5 813.26L197.5 813.26L197.5 818.75C 197.5 820.63 198.13 821.97 199.39 822.75C 200.33 823.34 201.81 823.63 203.82 823.62zM223.47 823.09L223.47 821.44L223.47 821.44L223.6 821.71C 224.18 822.63 225.59 823.09 227.84 823.09L227.84 823.09L248.62 823.09C 253.76 823.09 256.34 821.17 256.34 817.34L256.34 817.34L256.34 803.07C 256.2 802.27 256.03 801.48 255.85 800.68C 255.66 799.89 255.31 799.22 254.79 798.67C 254.26 798.12 253.56 797.79 252.67 797.68C 251.78 797.58 250.66 797.77 249.3 798.25L249.3 798.25L232.99 805.1C 233.58 806.97 234.49 808.36 235.71 809.24C 236.94 810.13 238.52 810.37 240.46 809.97L240.46 809.97L247.9 806.55L247.9 806.55L247.9 815.83L247.9 815.83L223.47 815.83L223.47 815.83L223.47 795.8L223.47 795.8L248.9 795.8C 254.24 795.8 256.9 794.1 256.9 790.69L256.9 790.69L256.9 784.47C 256.9 782.91 256.36 781.47 255.28 780.13L255.28 780.13L246.37 769.79L246.37 769.79L259.09 755.74C 257.73 754.64 256.5 754 255.4 753.79C 254.3 753.59 253.27 753.59 252.31 753.79C 251.35 754 250.46 754.35 249.64 754.86C 248.83 755.37 248.09 755.97 247.44 756.67L247.44 756.67L241.02 764.37L241.02 764.37L235.1 756.47C 234.69 756.07 234.17 755.57 233.53 754.98C 232.89 754.38 232.1 753.89 231.16 753.5C 230.22 753.12 229.11 752.96 227.83 753.04C 226.55 753.11 225.04 753.73 223.3 754.91L223.3 754.91L235.74 769.61L235.74 769.61L223.54 783.6L223.54 783.6L223.54 758.6C 223.54 756.62 222.93 755.14 221.71 754.17C 220.5 753.2 218.29 752.77 215.1 752.88L215.1 752.88L215.1 816.49C 215.1 818.61 215.77 820.26 217.11 821.44C 217.8 822.02 218.56 822.44 219.39 822.7C 220.23 822.96 221.59 823.09 223.47 823.09zM223.47 789.04L223.47 785.2C 224.65 786.28 226.2 786.75 228.12 786.6C 230.04 786.45 232.02 785.33 234.05 783.25L234.05 783.25L240.93 775.24L240.93 775.24L248.25 785.04L248.25 785.04L248.25 789.04zM143.16 823.76C 144.49 823.78 145.92 823.52 147.46 822.98L147.46 822.98L144.71 818.63L144.71 818.63L174.17 818.63C 179.22 818.63 181.74 816.41 181.74 811.96L181.74 811.96L181.74 794.93C 181.74 792.36 180.97 790.53 179.42 789.42C 177.86 788.32 175.72 788.04 172.97 788.6L172.97 788.6L167.5 790.03C 165.97 790.4 164.81 790.89 164.01 791.5C 163.22 792.1 162.64 792.8 162.27 793.6C 161.9 794.4 161.73 795.25 161.75 796.16C 161.78 797.07 162 798.18 162.42 799.48L162.42 799.48L173.45 796.65L173.45 796.65L173.45 811.3L173.45 811.3L140.02 811.3C 135.35 811.79 133.68 813.83 135.01 817.44L135.01 817.44L137.39 821.34C 139.02 822.92 140.95 823.73 143.16 823.76zM54.454 821.6L86.921 821.6C 89.691 821.6 91.705 821.06 92.963 819.98C 94.222 818.91 94.726 817.26 94.478 815.06L94.478 815.06L72.587 760.96L72.587 760.96L111.49 760.96C 111.61 758.34 111.12 756.38 110 755.05C 108.89 753.73 107.23 753.07 105.01 753.07L105.01 753.07L69.039 753.07C 63.894 753.07 61.753 755.18 62.614 759.41L62.614 759.41L84.716 813.64L84.716 813.64L47.681 813.64C 47.681 815.73 47.916 817.25 48.385 818.22C 48.855 819.18 49.444 819.91 50.152 820.4C 50.861 820.89 51.578 821.2 52.303 821.33C 53.028 821.45 53.745 821.54 54.454 821.6zM106.51 818.63C 109.19 817.77 110.82 816.57 111.42 815.03C 112.01 813.48 111.8 811.7 110.78 809.7L110.78 809.7L96.405 791.33L96.405 791.33L110.11 774.89C 112.57 770.8 111.3 767.77 106.33 765.79L106.33 765.79L89.147 787.13C 86.664 789.9 86.554 792.72 88.817 795.6zM131.52 818.62C 131.85 818.61 132.19 818.59 132.55 818.56L132.55 818.56L132.55 787.11L132.55 787.11L177.56 787.11C 177.91 787.11 178.52 787.08 179.37 787.03C 180.23 786.98 181.07 786.76 181.89 786.39C 182.72 786.02 183.45 785.38 184.09 784.48C 184.73 783.57 185.08 782.21 185.14 780.38L185.14 780.38L185.14 759.26C 184.66 754.99 182.21 752.85 177.77 752.85L177.77 752.85L160.55 752.85C 160.43 754.82 160.58 756.28 161 757.23C 161.41 758.18 161.97 758.9 162.66 759.4C 163.35 759.89 164.07 760.21 164.83 760.34C 165.59 760.47 166.23 760.53 166.75 760.53L166.75 760.53L176.63 760.53L176.63 760.53L176.63 779.64L176.63 779.64L131.81 779.64C 129.88 779.69 128.38 780.02 127.31 780.62C 126.24 781.22 125.45 781.92 124.95 782.71C 124.45 783.5 124.16 784.29 124.08 785.07C 124.01 785.85 124 786.47 124.04 786.94L124.04 786.94L124.04 812.18C 124.04 816.61 126.53 818.76 131.52 818.62zM144.15 808.98C 145.26 808.95 146.41 808.64 147.6 808.04C 148.79 807.45 149.91 806.33 150.95 804.68L150.95 804.68L158.49 792.36C 156.8 791.34 155.37 790.74 154.2 790.57C 153.02 790.4 151.98 790.43 151.08 790.67C 150.19 790.91 149.44 791.3 148.83 791.85C 148.23 792.4 147.75 792.96 147.4 793.51L147.4 793.51L138.95 807.36C 139.66 807.77 140.43 808.14 141.25 808.49C 142.07 808.84 143.04 809 144.15 808.98zM126.74 773.47L169.9 773.47C 170.3 770.99 170.04 769.09 169.11 767.77C 168.17 766.45 166.68 765.79 164.63 765.79L164.63 765.79L119.38 765.79C 119.48 768.33 120.13 770.24 121.35 771.53C 122.56 772.82 124.36 773.47 126.74 773.47z" stroke="none" fill="#5B9BD5" fill-rule="evenodd" /></g><g clip-path="url(#217)"><path transform="matrix(1 0 0 -1 0 841)" d="M277.47 814.32L314.25 814.32L314.25 814.32L314.25 762.46L314.25 762.46L277.47 762.46zM284.14 807.77L284.14 769.02L284.14 769.02L307.3 769.02L307.3 769.02L307.3 807.77zM203.82 823.62C 204.49 823.62 205.22 823.58 206.01 823.51L206.01 823.51L206.01 813.26L206.01 813.26L213.87 813.26C 214.05 810.94 213.79 809.13 213.1 807.82C 212.41 806.51 211.25 805.72 209.64 805.44L209.64 805.44L206.01 805.44L206.01 805.44L206.01 788.1L206.01 788.1L212.88 790.43C 214 788.24 214.3 786.31 213.78 784.66C 213.26 783 211.78 781.8 209.35 781.05L209.35 781.05L206.01 779.79L206.01 779.79L206.01 761.92C 206.01 761.04 206.02 760.22 206.04 759.44C 206.07 758.67 205.9 757.83 205.56 756.92C 205.21 756.02 204.54 755.24 203.55 754.6C 202.55 753.95 201.06 753.63 199.06 753.63L199.06 753.63L189.96 753.71C 189.62 756.05 190.06 757.95 191.29 759.41C 192.52 760.87 194.12 761.57 196.07 761.52L196.07 761.52L197.5 761.52L197.5 761.52L197.5 777.31L197.5 777.31L190.23 774.62C 189.52 776.33 189.23 777.7 189.35 778.74C 189.47 779.79 189.78 780.67 190.26 781.39C 190.73 782.11 191.3 782.65 191.96 783.02C 192.61 783.38 193.11 783.63 193.44 783.76L193.44 783.76L197.5 785.39L197.5 785.39L197.5 805.44L197.5 805.44L189.52 805.44C 189.23 807.94 189.47 809.86 190.22 811.22C 190.98 812.58 192.28 813.26 194.12 813.26L194.12 813.26L197.5 813.26L197.5 813.26L197.5 818.75C 197.5 820.63 198.13 821.97 199.39 822.75C 200.33 823.34 201.81 823.63 203.82 823.62zM223.47 823.09L223.47 821.44L223.47 821.44L223.6 821.71C 224.18 822.63 225.59 823.09 227.84 823.09L227.84 823.09L248.62 823.09C 253.76 823.09 256.34 821.17 256.34 817.34L256.34 817.34L256.34 803.07C 256.2 802.27 256.03 801.48 255.85 800.68C 255.66 799.89 255.31 799.22 254.79 798.67C 254.26 798.12 253.56 797.79 252.67 797.68C 251.78 797.58 250.66 797.77 249.3 798.25L249.3 798.25L232.99 805.1C 233.58 806.97 234.49 808.36 235.71 809.24C 236.94 810.13 238.52 810.37 240.46 809.97L240.46 809.97L247.9 806.55L247.9 806.55L247.9 815.83L247.9 815.83L223.47 815.83L223.47 815.83L223.47 795.8L223.47 795.8L248.9 795.8C 254.24 795.8 256.9 794.1 256.9 790.69L256.9 790.69L256.9 784.47C 256.9 782.91 256.36 781.47 255.28 780.13L255.28 780.13L246.37 769.79L246.37 769.79L259.09 755.74C 257.73 754.64 256.5 754 255.4 753.79C 254.3 753.59 253.27 753.59 252.31 753.79C 251.35 754 250.46 754.35 249.64 754.86C 248.83 755.37 248.09 755.97 247.44 756.67L247.44 756.67L241.02 764.37L241.02 764.37L235.1 756.47C 234.69 756.07 234.17 755.57 233.53 754.98C 232.89 754.38 232.1 753.89 231.16 753.5C 230.22 753.12 229.11 752.96 227.83 753.04C 226.55 753.11 225.04 753.73 223.3 754.91L223.3 754.91L235.74 769.61L235.74 769.61L223.54 783.6L223.54 783.6L223.54 758.6C 223.54 756.62 222.93 755.14 221.71 754.17C 220.5 753.2 218.29 752.77 215.1 752.88L215.1 752.88L215.1 816.49C 215.1 818.61 215.77 820.26 217.11 821.44C 217.8 822.02 218.56 822.44 219.39 822.7C 220.23 822.96 221.59 823.09 223.47 823.09zM223.47 789.04L223.47 785.2C 224.65 786.28 226.2 786.75 228.12 786.6C 230.04 786.45 232.02 785.33 234.05 783.25L234.05 783.25L240.93 775.24L240.93 775.24L248.25 785.04L248.25 785.04L248.25 789.04zM143.16 823.76C 144.49 823.78 145.92 823.52 147.46 822.98L147.46 822.98L144.71 818.63L144.71 818.63L174.17 818.63C 179.22 818.63 181.74 816.41 181.74 811.96L181.74 811.96L181.74 794.93C 181.74 792.36 180.97 790.53 179.42 789.42C 177.86 788.32 175.72 788.04 172.97 788.6L172.97 788.6L167.5 790.03C 165.97 790.4 164.81 790.89 164.01 791.5C 163.22 792.1 162.64 792.8 162.27 793.6C 161.9 794.4 161.73 795.25 161.75 796.16C 161.78 797.07 162 798.18 162.42 799.48L162.42 799.48L173.45 796.65L173.45 796.65L173.45 811.3L173.45 811.3L140.02 811.3C 135.35 811.79 133.68 813.83 135.01 817.44L135.01 817.44L137.39 821.34C 139.02 822.92 140.95 823.73 143.16 823.76zM54.454 821.6L86.921 821.6C 89.691 821.6 91.705 821.06 92.963 819.98C 94.222 818.91 94.726 817.26 94.478 815.06L94.478 815.06L72.587 760.96L72.587 760.96L111.49 760.96C 111.61 758.34 111.12 756.38 110 755.05C 108.89 753.73 107.23 753.07 105.01 753.07L105.01 753.07L69.039 753.07C 63.894 753.07 61.753 755.18 62.614 759.41L62.614 759.41L84.716 813.64L84.716 813.64L47.681 813.64C 47.681 815.73 47.916 817.25 48.385 818.22C 48.855 819.18 49.444 819.91 50.152 820.4C 50.861 820.89 51.578 821.2 52.303 821.33C 53.028 821.45 53.745 821.54 54.454 821.6zM106.51 818.63C 109.19 817.77 110.82 816.57 111.42 815.03C 112.01 813.48 111.8 811.7 110.78 809.7L110.78 809.7L96.405 791.33L96.405 791.33L110.11 774.89C 112.57 770.8 111.3 767.77 106.33 765.79L106.33 765.79L89.147 787.13C 86.664 789.9 86.554 792.72 88.817 795.6zM131.52 818.62C 131.85 818.61 132.19 818.59 132.55 818.56L132.55 818.56L132.55 787.11L132.55 787.11L177.56 787.11C 177.91 787.11 178.52 787.08 179.37 787.03C 180.23 786.98 181.07 786.76 181.89 786.39C 182.72 786.02 183.45 785.38 184.09 784.48C 184.73 783.57 185.08 782.21 185.14 780.38L185.14 780.38L185.14 759.26C 184.66 754.99 182.21 752.85 177.77 752.85L177.77 752.85L160.55 752.85C 160.43 754.82 160.58 756.28 161 757.23C 161.41 758.18 161.97 758.9 162.66 759.4C 163.35 759.89 164.07 760.21 164.83 760.34C 165.59 760.47 166.23 760.53 166.75 760.53L166.75 760.53L176.63 760.53L176.63 760.53L176.63 779.64L176.63 779.64L131.81 779.64C 129.88 779.69 128.38 780.02 127.31 780.62C 126.24 781.22 125.45 781.92 124.95 782.71C 124.45 783.5 124.16 784.29 124.08 785.07C 124.01 785.85 124 786.47 124.04 786.94L124.04 786.94L124.04 812.18C 124.04 816.61 126.53 818.76 131.52 818.62zM144.15 808.98C 145.26 808.95 146.41 808.64 147.6 808.04C 148.79 807.45 149.91 806.33 150.95 804.68L150.95 804.68L158.49 792.36C 156.8 791.34 155.37 790.74 154.2 790.57C 153.02 790.4 151.98 790.43 151.08 790.67C 150.19 790.91 149.44 791.3 148.83 791.85C 148.23 792.4 147.75 792.96 147.4 793.51L147.4 793.51L138.95 807.36C 139.66 807.77 140.43 808.14 141.25 808.49C 142.07 808.84 143.04 809 144.15 808.98zM126.74 773.47L169.9 773.47C 170.3 770.99 170.04 769.09 169.11 767.77C 168.17 766.45 166.68 765.79 164.63 765.79L164.63 765.79L119.38 765.79C 119.48 768.33 120.13 770.24 121.35 771.53C 122.56 772.82 124.36 773.47 126.74 773.47z" stroke="#FFFFFF" stroke-width="0.75" fill="none" /></g></g></g></g></svg>